<?xml version="1.0" encoding="UTF-8" standalone="no"?>
<!DOCTYPE svg PUBLIC "-//W3C//DTD SVG 1.1//EN"
 "http://www.w3.org/Graphics/SVG/1.1/DTD/svg11.dtd">
<!-- Generated by graphviz version 2.38.0 (20140413.2041)
 -->
<!-- Title: controllers_diagram Pages: 1 -->
<svg width="821pt" height="461pt"
 viewBox="0.00 0.00 821.28 461.22" xmlns="http://www.w3.org/2000/svg" xmlns:xlink="http://www.w3.org/1999/xlink">
<g id="graph0" class="graph" transform="scale(1 1) rotate(0) translate(178.06 253.82)">
<title>controllers_diagram</title>
<polygon fill="white" stroke="none" points="-178.06,207.404 -178.06,-253.82 643.22,-253.82 643.22,207.404 -178.06,207.404"/>
<!-- _diagram_info -->
<g id="node1" class="node"><title>_diagram_info</title>
<text text-anchor="start" x="65.7883" y="114.9" font-family="Times,serif" font-size="13.00">Controllers diagram</text>
<text text-anchor="start" x="65.7883" y="127.9" font-family="Times,serif" font-size="13.00">Date: May 11 2014 &#45; 05:56</text>
<text text-anchor="start" x="65.7883" y="140.9" font-family="Times,serif" font-size="13.00">Migration version: 20140511124740</text>
<text text-anchor="start" x="65.7883" y="153.9" font-family="Times,serif" font-size="13.00">Generated by RailRoady 1.1.1</text>
<text text-anchor="start" x="65.7883" y="166.9" font-family="Times,serif" font-size="13.00">http://railroady.prestonlee.com</text>
</g>
<!-- ApplicationController -->
<g id="node2" class="node"><title>ApplicationController</title>
<path fill="none" stroke="black" d="M-162.06,54.6979C-162.06,54.6979 11.8712,54.6979 11.8712,54.6979 17.8712,54.6979 23.8712,48.6979 23.8712,42.6979 23.8712,42.6979 23.8712,-23.3021 23.8712,-23.3021 23.8712,-29.3021 17.8712,-35.3021 11.8712,-35.3021 11.8712,-35.3021 -162.06,-35.3021 -162.06,-35.3021 -168.06,-35.3021 -174.06,-29.3021 -174.06,-23.3021 -174.06,-23.3021 -174.06,42.6979 -174.06,42.6979 -174.06,48.6979 -168.06,54.6979 -162.06,54.6979"/>
<text text-anchor="middle" x="-75.0946" y="-20.1021" font-family="Times,serif" font-size="14.00">ApplicationController</text>
<polyline fill="none" stroke="black" points="-174.06,-13.3021 23.8712,-13.3021 "/>
<polyline fill="none" stroke="black" points="-174.06,10.6979 23.8712,10.6979 "/>
<text text-anchor="start" x="-166.06" y="25.8979" font-family="Times,serif" font-size="14.00">configure_permitted_parameters</text>
<polyline fill="none" stroke="black" points="-174.06,32.6979 23.8712,32.6979 "/>
<text text-anchor="start" x="-166.06" y="47.8979" font-family="Times,serif" font-size="14.00">_layout</text>
</g>
<!-- CampsController -->
<g id="node3" class="node"><title>CampsController</title>
<path fill="none" stroke="black" d="M59.3927,69.7758C59.3927,69.7758 147.827,69.7758 147.827,69.7758 153.827,69.7758 159.827,63.7758 159.827,57.7758 159.827,57.7758 159.827,-92.2242 159.827,-92.2242 159.827,-98.2242 153.827,-104.224 147.827,-104.224 147.827,-104.224 59.3927,-104.224 59.3927,-104.224 53.3927,-104.224 47.3927,-98.2242 47.3927,-92.2242 47.3927,-92.2242 47.3927,57.7758 47.3927,57.7758 47.3927,63.7758 53.3927,69.7758 59.3927,69.7758"/>
<text text-anchor="middle" x="103.61" y="-89.0242" font-family="Times,serif" font-size="14.00">CampsController</text>
<polyline fill="none" stroke="black" points="47.3927,-82.2242 159.827,-82.2242 "/>
<text text-anchor="start" x="55.3927" y="-67.0242" font-family="Times,serif" font-size="14.00">create</text>
<text text-anchor="start" x="55.3927" y="-53.0242" font-family="Times,serif" font-size="14.00">destroy</text>
<text text-anchor="start" x="55.3927" y="-39.0242" font-family="Times,serif" font-size="14.00">index</text>
<text text-anchor="start" x="55.3927" y="-25.0242" font-family="Times,serif" font-size="14.00">new</text>
<text text-anchor="start" x="55.3927" y="-11.0242" font-family="Times,serif" font-size="14.00">show</text>
<text text-anchor="start" x="55.3927" y="2.97575" font-family="Times,serif" font-size="14.00">update</text>
<polyline fill="none" stroke="black" points="47.3927,9.77575 159.827,9.77575 "/>
<polyline fill="none" stroke="black" points="47.3927,33.7758 159.827,33.7758 "/>
<text text-anchor="start" x="55.3927" y="48.9758" font-family="Times,serif" font-size="14.00">_layout</text>
<text text-anchor="start" x="55.3927" y="62.9758" font-family="Times,serif" font-size="14.00">camp_params</text>
</g>
<!-- ApplicationController&#45;&gt;CampsController -->
<g id="edge1" class="edge"><title>ApplicationController&#45;&gt;CampsController</title>
<path fill="none" stroke="black" d="M23.9265,-5.21981C31.8184,-6.40873 39.6085,-7.58232 47.0466,-8.70289"/>
</g>
<!-- InfoController -->
<g id="node4" class="node"><title>InfoController</title>
<path fill="none" stroke="black" d="M-81.7577,202.904C-81.7577,202.904 -8.88852,202.904 -8.88852,202.904 -2.88852,202.904 3.11148,196.904 3.11148,190.904 3.11148,190.904 3.11148,82.9045 3.11148,82.9045 3.11148,76.9045 -2.88852,70.9045 -8.88852,70.9045 -8.88852,70.9045 -81.7577,70.9045 -81.7577,70.9045 -87.7577,70.9045 -93.7577,76.9045 -93.7577,82.9045 -93.7577,82.9045 -93.7577,190.904 -93.7577,190.904 -93.7577,196.904 -87.7577,202.904 -81.7577,202.904"/>
<text text-anchor="middle" x="-45.3231" y="86.1045" font-family="Times,serif" font-size="14.00">InfoController</text>
<polyline fill="none" stroke="black" points="-93.7577,92.9045 3.11148,92.9045 "/>
<text text-anchor="start" x="-85.7577" y="108.104" font-family="Times,serif" font-size="14.00">about</text>
<text text-anchor="start" x="-85.7577" y="122.104" font-family="Times,serif" font-size="14.00">index</text>
<text text-anchor="start" x="-85.7577" y="136.104" font-family="Times,serif" font-size="14.00">license</text>
<text text-anchor="start" x="-85.7577" y="150.104" font-family="Times,serif" font-size="14.00">privacy</text>
<polyline fill="none" stroke="black" points="-93.7577,156.904 3.11148,156.904 "/>
<polyline fill="none" stroke="black" points="-93.7577,180.904 3.11148,180.904 "/>
<text text-anchor="start" x="-85.7577" y="196.104" font-family="Times,serif" font-size="14.00">_layout</text>
</g>
<!-- ApplicationController&#45;&gt;InfoController -->
<g id="edge2" class="edge"><title>ApplicationController&#45;&gt;InfoController</title>
<path fill="none" stroke="black" d="M-64.5144,54.9043C-63.3111,60.046 -62.0667,65.3631 -60.8165,70.7047"/>
</g>
<!-- ProfilesController -->
<g id="node6" class="node"><title>ProfilesController</title>
<path fill="none" stroke="black" d="M-132.775,-63.5375C-132.775,-63.5375 -40.4438,-63.5375 -40.4438,-63.5375 -34.4438,-63.5375 -28.4438,-69.5375 -28.4438,-75.5375 -28.4438,-75.5375 -28.4438,-155.537 -28.4438,-155.537 -28.4438,-161.537 -34.4438,-167.537 -40.4438,-167.537 -40.4438,-167.537 -132.775,-167.537 -132.775,-167.537 -138.775,-167.537 -144.775,-161.537 -144.775,-155.537 -144.775,-155.537 -144.775,-75.5375 -144.775,-75.5375 -144.775,-69.5375 -138.775,-63.5375 -132.775,-63.5375"/>
<text text-anchor="middle" x="-86.6093" y="-152.337" font-family="Times,serif" font-size="14.00">ProfilesController</text>
<polyline fill="none" stroke="black" points="-144.775,-145.537 -28.4438,-145.537 "/>
<text text-anchor="start" x="-136.775" y="-130.337" font-family="Times,serif" font-size="14.00">index</text>
<text text-anchor="start" x="-136.775" y="-116.337" font-family="Times,serif" font-size="14.00">show</text>
<polyline fill="none" stroke="black" points="-144.775,-109.537 -28.4438,-109.537 "/>
<polyline fill="none" stroke="black" points="-144.775,-85.5375 -28.4438,-85.5375 "/>
<text text-anchor="start" x="-136.775" y="-70.3375" font-family="Times,serif" font-size="14.00">_layout</text>
</g>
<!-- ApplicationController&#45;&gt;ProfilesController -->
<g id="edge4" class="edge"><title>ApplicationController&#45;&gt;ProfilesController</title>
<path fill="none" stroke="black" d="M-79.2517,-35.515C-80.0762,-44.483 -80.9484,-53.9684 -81.7928,-63.1521"/>
</g>
<!-- OmniauthCallbacksController -->
<g id="node5" class="node"><title>OmniauthCallbacksController</title>
<path fill="none" stroke="black" d="M157.106,-145.32C157.106,-145.32 317.851,-145.32 317.851,-145.32 323.851,-145.32 329.851,-151.32 329.851,-157.32 329.851,-157.32 329.851,-237.32 329.851,-237.32 329.851,-243.32 323.851,-249.32 317.851,-249.32 317.851,-249.32 157.106,-249.32 157.106,-249.32 151.106,-249.32 145.106,-243.32 145.106,-237.32 145.106,-237.32 145.106,-157.32 145.106,-157.32 145.106,-151.32 151.106,-145.32 157.106,-145.32"/>
<text text-anchor="middle" x="237.478" y="-234.12" font-family="Times,serif" font-size="14.00">OmniauthCallbacksController</text>
<polyline fill="none" stroke="black" points="145.106,-227.32 329.851,-227.32 "/>
<text text-anchor="start" x="153.106" y="-212.12" font-family="Times,serif" font-size="14.00">all</text>
<text text-anchor="start" x="153.106" y="-198.12" font-family="Times,serif" font-size="14.00">facebook</text>
<polyline fill="none" stroke="black" points="145.106,-191.32 329.851,-191.32 "/>
<polyline fill="none" stroke="black" points="145.106,-167.32 329.851,-167.32 "/>
<text text-anchor="start" x="153.106" y="-152.12" font-family="Times,serif" font-size="14.00">_layout</text>
</g>
<!-- Devise::OmniauthCallbacksController -->
<g id="node7" class="node"><title>Devise::OmniauthCallbacksController</title>
<ellipse fill="none" stroke="black" cx="493.05" cy="-197.319" rx="146.34" ry="18"/>
<text text-anchor="middle" x="493.05" y="-193.119" font-family="Times,serif" font-size="14.00">Devise::OmniauthCallbacksController</text>
</g>
<!-- Devise::OmniauthCallbacksController&#45;&gt;OmniauthCallbacksController -->
<g id="edge3" class="edge"><title>Devise::OmniauthCallbacksController&#45;&gt;OmniauthCallbacksController</title>
<path fill="none" stroke="black" d="M346.605,-197.32C341.028,-197.32 335.5,-197.32 330.065,-197.32"/>
</g>
</g>
</svg>
