<?xml version="1.0" encoding="UTF-8" standalone="no"?>
<!DOCTYPE svg PUBLIC "-//W3C//DTD SVG 1.1//EN"
 "http://www.w3.org/Graphics/SVG/1.1/DTD/svg11.dtd">
<!-- Generated by graphviz version 2.38.0 (20140413.2041)
 -->
<!-- Title: controllers_diagram Pages: 1 -->
<svg width="705pt" height="398pt"
 viewBox="0.00 0.00 704.94 397.54" xmlns="http://www.w3.org/2000/svg" xmlns:xlink="http://www.w3.org/1999/xlink">
<g id="graph0" class="graph" transform="scale(1 1) rotate(0) translate(177.725 190.355)">
<title>controllers_diagram</title>
<polygon fill="white" stroke="none" points="-177.725,207.18 -177.725,-190.355 527.22,-190.355 527.22,207.18 -177.725,207.18"/>
<!-- _diagram_info -->
<g id="node1" class="node"><title>_diagram_info</title>
<text text-anchor="start" x="210.788" y="-1.1" font-family="Times,serif" font-size="13.00">Controllers diagram</text>
<text text-anchor="start" x="210.788" y="11.9" font-family="Times,serif" font-size="13.00">Date: May 12 2014 &#45; 14:17</text>
<text text-anchor="start" x="210.788" y="24.9" font-family="Times,serif" font-size="13.00">Migration version: 20140512211104</text>
<text text-anchor="start" x="210.788" y="37.9" font-family="Times,serif" font-size="13.00">Generated by RailRoady 1.1.1</text>
<text text-anchor="start" x="210.788" y="50.9" font-family="Times,serif" font-size="13.00">http://railroady.prestonlee.com</text>
</g>
<!-- ApplicationController -->
<g id="node2" class="node"><title>ApplicationController</title>
<path fill="none" stroke="black" d="M-161.725,26.7728C-161.725,26.7728 12.2071,26.7728 12.2071,26.7728 18.2071,26.7728 24.2071,20.7728 24.2071,14.7728 24.2071,14.7728 24.2071,-51.2272 24.2071,-51.2272 24.2071,-57.2272 18.2071,-63.2272 12.2071,-63.2272 12.2071,-63.2272 -161.725,-63.2272 -161.725,-63.2272 -167.725,-63.2272 -173.725,-57.2272 -173.725,-51.2272 -173.725,-51.2272 -173.725,14.7728 -173.725,14.7728 -173.725,20.7728 -167.725,26.7728 -161.725,26.7728"/>
<text text-anchor="middle" x="-74.7588" y="-48.0272" font-family="Times,serif" font-size="14.00">ApplicationController</text>
<polyline fill="none" stroke="black" points="-173.725,-41.2272 24.2071,-41.2272 "/>
<polyline fill="none" stroke="black" points="-173.725,-17.2272 24.2071,-17.2272 "/>
<text text-anchor="start" x="-165.725" y="-2.02719" font-family="Times,serif" font-size="14.00">configure_permitted_parameters</text>
<polyline fill="none" stroke="black" points="-173.725,4.77281 24.2071,4.77281 "/>
<text text-anchor="start" x="-165.725" y="19.9728" font-family="Times,serif" font-size="14.00">_layout</text>
</g>
<!-- CampsController -->
<g id="node3" class="node"><title>CampsController</title>
<path fill="none" stroke="black" d="M46.9955,59.9819C46.9955,59.9819 135.43,59.9819 135.43,59.9819 141.43,59.9819 147.43,53.9819 147.43,47.9819 147.43,47.9819 147.43,-130.018 147.43,-130.018 147.43,-136.018 141.43,-142.018 135.43,-142.018 135.43,-142.018 46.9955,-142.018 46.9955,-142.018 40.9955,-142.018 34.9955,-136.018 34.9955,-130.018 34.9955,-130.018 34.9955,47.9819 34.9955,47.9819 34.9955,53.9819 40.9955,59.9819 46.9955,59.9819"/>
<text text-anchor="middle" x="91.2127" y="-126.818" font-family="Times,serif" font-size="14.00">CampsController</text>
<polyline fill="none" stroke="black" points="34.9955,-120.018 147.43,-120.018 "/>
<text text-anchor="start" x="42.9955" y="-104.818" font-family="Times,serif" font-size="14.00">create</text>
<text text-anchor="start" x="42.9955" y="-90.8181" font-family="Times,serif" font-size="14.00">destroy</text>
<text text-anchor="start" x="42.9955" y="-76.8181" font-family="Times,serif" font-size="14.00">edit</text>
<text text-anchor="start" x="42.9955" y="-62.8181" font-family="Times,serif" font-size="14.00">index</text>
<text text-anchor="start" x="42.9955" y="-48.8181" font-family="Times,serif" font-size="14.00">new</text>
<text text-anchor="start" x="42.9955" y="-34.8181" font-family="Times,serif" font-size="14.00">show</text>
<text text-anchor="start" x="42.9955" y="-20.8181" font-family="Times,serif" font-size="14.00">update</text>
<polyline fill="none" stroke="black" points="34.9955,-14.0181 147.43,-14.0181 "/>
<polyline fill="none" stroke="black" points="34.9955,9.98185 147.43,9.98185 "/>
<text text-anchor="start" x="42.9955" y="25.1819" font-family="Times,serif" font-size="14.00">_layout</text>
<text text-anchor="start" x="42.9955" y="39.1819" font-family="Times,serif" font-size="14.00">camp_params</text>
<text text-anchor="start" x="42.9955" y="53.1819" font-family="Times,serif" font-size="14.00">set_camp</text>
</g>
<!-- ApplicationController&#45;&gt;CampsController -->
<g id="edge1" class="edge"><title>ApplicationController&#45;&gt;CampsController</title>
<path fill="none" stroke="black" d="M24.6621,-31.8795C28.114,-32.3535 31.5264,-32.8221 34.874,-33.2818"/>
</g>
<!-- InfoController -->
<g id="node4" class="node"><title>InfoController</title>
<path fill="none" stroke="black" d="M-100.224,173.869C-100.224,173.869 -27.3546,173.869 -27.3546,173.869 -21.3546,173.869 -15.3546,167.869 -15.3546,161.869 -15.3546,161.869 -15.3546,53.8695 -15.3546,53.8695 -15.3546,47.8695 -21.3546,41.8695 -27.3546,41.8695 -27.3546,41.8695 -100.224,41.8695 -100.224,41.8695 -106.224,41.8695 -112.224,47.8695 -112.224,53.8695 -112.224,53.8695 -112.224,161.869 -112.224,161.869 -112.224,167.869 -106.224,173.869 -100.224,173.869"/>
<text text-anchor="middle" x="-63.7892" y="57.0695" font-family="Times,serif" font-size="14.00">InfoController</text>
<polyline fill="none" stroke="black" points="-112.224,63.8695 -15.3546,63.8695 "/>
<text text-anchor="start" x="-104.224" y="79.0695" font-family="Times,serif" font-size="14.00">about</text>
<text text-anchor="start" x="-104.224" y="93.0695" font-family="Times,serif" font-size="14.00">index</text>
<text text-anchor="start" x="-104.224" y="107.069" font-family="Times,serif" font-size="14.00">license</text>
<text text-anchor="start" x="-104.224" y="121.069" font-family="Times,serif" font-size="14.00">privacy</text>
<polyline fill="none" stroke="black" points="-112.224,127.869 -15.3546,127.869 "/>
<polyline fill="none" stroke="black" points="-112.224,151.869 -15.3546,151.869 "/>
<text text-anchor="start" x="-104.224" y="167.069" font-family="Times,serif" font-size="14.00">_layout</text>
</g>
<!-- ApplicationController&#45;&gt;InfoController -->
<g id="edge2" class="edge"><title>ApplicationController&#45;&gt;InfoController</title>
<path fill="none" stroke="black" d="M-70.8295,26.9404C-70.4114,31.7459 -69.9803,36.7024 -69.5468,41.6851"/>
</g>
<!-- ProfilesController -->
<g id="node6" class="node"><title>ProfilesController</title>
<path fill="none" stroke="black" d="M-149.463,-81.8554C-149.463,-81.8554 -57.1315,-81.8554 -57.1315,-81.8554 -51.1315,-81.8554 -45.1315,-87.8554 -45.1315,-93.8554 -45.1315,-93.8554 -45.1315,-173.855 -45.1315,-173.855 -45.1315,-179.855 -51.1315,-185.855 -57.1315,-185.855 -57.1315,-185.855 -149.463,-185.855 -149.463,-185.855 -155.463,-185.855 -161.463,-179.855 -161.463,-173.855 -161.463,-173.855 -161.463,-93.8554 -161.463,-93.8554 -161.463,-87.8554 -155.463,-81.8554 -149.463,-81.8554"/>
<text text-anchor="middle" x="-103.297" y="-170.655" font-family="Times,serif" font-size="14.00">ProfilesController</text>
<polyline fill="none" stroke="black" points="-161.463,-163.855 -45.1315,-163.855 "/>
<text text-anchor="start" x="-153.463" y="-148.655" font-family="Times,serif" font-size="14.00">index</text>
<text text-anchor="start" x="-153.463" y="-134.655" font-family="Times,serif" font-size="14.00">show</text>
<polyline fill="none" stroke="black" points="-161.463,-127.855 -45.1315,-127.855 "/>
<polyline fill="none" stroke="black" points="-161.463,-103.855 -45.1315,-103.855 "/>
<text text-anchor="start" x="-153.463" y="-88.6554" font-family="Times,serif" font-size="14.00">_layout</text>
</g>
<!-- ApplicationController&#45;&gt;ProfilesController -->
<g id="edge4" class="edge"><title>ApplicationController&#45;&gt;ProfilesController</title>
<path fill="none" stroke="black" d="M-85.8741,-63.2632C-87.3765,-69.3506 -88.9281,-75.6371 -90.4575,-81.8338"/>
</g>
<!-- OmniauthCallbacksController -->
<g id="node5" class="node"><title>OmniauthCallbacksController</title>
<path fill="none" stroke="black" d="M41.1058,202.68C41.1058,202.68 201.851,202.68 201.851,202.68 207.851,202.68 213.851,196.68 213.851,190.68 213.851,190.68 213.851,110.68 213.851,110.68 213.851,104.68 207.851,98.6804 201.851,98.6804 201.851,98.6804 41.1058,98.6804 41.1058,98.6804 35.1058,98.6804 29.1058,104.68 29.1058,110.68 29.1058,110.68 29.1058,190.68 29.1058,190.68 29.1058,196.68 35.1058,202.68 41.1058,202.68"/>
<text text-anchor="middle" x="121.478" y="113.88" font-family="Times,serif" font-size="14.00">OmniauthCallbacksController</text>
<polyline fill="none" stroke="black" points="29.1058,120.68 213.851,120.68 "/>
<text text-anchor="start" x="37.1058" y="135.88" font-family="Times,serif" font-size="14.00">all</text>
<text text-anchor="start" x="37.1058" y="149.88" font-family="Times,serif" font-size="14.00">facebook</text>
<polyline fill="none" stroke="black" points="29.1058,156.68 213.851,156.68 "/>
<polyline fill="none" stroke="black" points="29.1058,180.68 213.851,180.68 "/>
<text text-anchor="start" x="37.1058" y="195.88" font-family="Times,serif" font-size="14.00">_layout</text>
</g>
<!-- Devise::OmniauthCallbacksController -->
<g id="node7" class="node"><title>Devise::OmniauthCallbacksController</title>
<ellipse fill="none" stroke="black" cx="377.05" cy="150.681" rx="146.34" ry="18"/>
<text text-anchor="middle" x="377.05" y="154.881" font-family="Times,serif" font-size="14.00">Devise::OmniauthCallbacksController</text>
</g>
<!-- Devise::OmniauthCallbacksController&#45;&gt;OmniauthCallbacksController -->
<g id="edge3" class="edge"><title>Devise::OmniauthCallbacksController&#45;&gt;OmniauthCallbacksController</title>
<path fill="none" stroke="black" d="M230.605,150.68C225.028,150.68 219.5,150.68 214.065,150.68"/>
</g>
</g>
</svg>
