<?xml version="1.0" encoding="UTF-8" standalone="no"?>
<!DOCTYPE svg PUBLIC "-//W3C//DTD SVG 1.1//EN"
 "http://www.w3.org/Graphics/SVG/1.1/DTD/svg11.dtd">
<!-- Generated by graphviz version 2.38.0 (20140413.2041)
 -->
<!-- Title: models_diagram Pages: 1 -->
<svg width="1032pt" height="1306pt"
 viewBox="0.00 0.00 1032.11 1306.00" xmlns="http://www.w3.org/2000/svg" xmlns:xlink="http://www.w3.org/1999/xlink">
<g id="graph0" class="graph" transform="scale(1 1) rotate(0) translate(4 1302)">
<title>models_diagram</title>
<polygon fill="white" stroke="none" points="-4,4 -4,-1302 1028.11,-1302 1028.11,4 -4,4"/>
<!-- _diagram_info -->
<g id="node1" class="node"><title>_diagram_info</title>
<text text-anchor="start" x="209.066" y="-1283.6" font-family="Times,serif" font-size="13.00">Models diagram</text>
<text text-anchor="start" x="209.066" y="-1270.6" font-family="Times,serif" font-size="13.00">Date: May 12 2014 &#45; 14:17</text>
<text text-anchor="start" x="209.066" y="-1257.6" font-family="Times,serif" font-size="13.00">Migration version: 20140512211104</text>
<text text-anchor="start" x="209.066" y="-1244.6" font-family="Times,serif" font-size="13.00">Generated by RailRoady 1.1.1</text>
<text text-anchor="start" x="209.066" y="-1231.6" font-family="Times,serif" font-size="13.00">http://railroady.prestonlee.com</text>
</g>
<!-- Admin -->
<g id="node2" class="node"><title>Admin</title>
<path fill="none" stroke="black" d="M12,-787.5C12,-787.5 192.556,-787.5 192.556,-787.5 198.556,-787.5 204.556,-793.5 204.556,-799.5 204.556,-799.5 204.556,-987.5 204.556,-987.5 204.556,-993.5 198.556,-999.5 192.556,-999.5 192.556,-999.5 12,-999.5 12,-999.5 6,-999.5 0,-993.5 0,-987.5 0,-987.5 0,-799.5 0,-799.5 0,-793.5 6,-787.5 12,-787.5"/>
<text text-anchor="middle" x="102.278" y="-984.3" font-family="Times,serif" font-size="14.00">Admin</text>
<polyline fill="none" stroke="black" points="0,-977.5 204.556,-977.5 "/>
<text text-anchor="start" x="8" y="-962.3" font-family="Times,serif" font-size="14.00">id :integer</text>
<text text-anchor="start" x="8" y="-948.3" font-family="Times,serif" font-size="14.00">email :string</text>
<text text-anchor="start" x="8" y="-934.3" font-family="Times,serif" font-size="14.00">encrypted_password :string</text>
<text text-anchor="start" x="8" y="-920.3" font-family="Times,serif" font-size="14.00">reset_password_token :string</text>
<text text-anchor="start" x="8" y="-906.3" font-family="Times,serif" font-size="14.00">reset_password_sent_at :datetime</text>
<text text-anchor="start" x="8" y="-892.3" font-family="Times,serif" font-size="14.00">remember_created_at :datetime</text>
<text text-anchor="start" x="8" y="-878.3" font-family="Times,serif" font-size="14.00">sign_in_count :integer</text>
<text text-anchor="start" x="8" y="-864.3" font-family="Times,serif" font-size="14.00">current_sign_in_at :datetime</text>
<text text-anchor="start" x="8" y="-850.3" font-family="Times,serif" font-size="14.00">last_sign_in_at :datetime</text>
<text text-anchor="start" x="8" y="-836.3" font-family="Times,serif" font-size="14.00">current_sign_in_ip :string</text>
<text text-anchor="start" x="8" y="-822.3" font-family="Times,serif" font-size="14.00">last_sign_in_ip :string</text>
<text text-anchor="start" x="8" y="-808.3" font-family="Times,serif" font-size="14.00">created_at :datetime</text>
<text text-anchor="start" x="8" y="-794.3" font-family="Times,serif" font-size="14.00">updated_at :datetime</text>
</g>
<!-- Camp -->
<g id="node3" class="node"><title>Camp</title>
<path fill="none" stroke="black" d="M234.666,-808.5C234.666,-808.5 363.89,-808.5 363.89,-808.5 369.89,-808.5 375.89,-814.5 375.89,-820.5 375.89,-820.5 375.89,-966.5 375.89,-966.5 375.89,-972.5 369.89,-978.5 363.89,-978.5 363.89,-978.5 234.666,-978.5 234.666,-978.5 228.666,-978.5 222.666,-972.5 222.666,-966.5 222.666,-966.5 222.666,-820.5 222.666,-820.5 222.666,-814.5 228.666,-808.5 234.666,-808.5"/>
<text text-anchor="middle" x="299.278" y="-963.3" font-family="Times,serif" font-size="14.00">Camp</text>
<polyline fill="none" stroke="black" points="222.666,-956.5 375.89,-956.5 "/>
<text text-anchor="start" x="230.666" y="-941.3" font-family="Times,serif" font-size="14.00">id :integer</text>
<text text-anchor="start" x="230.666" y="-927.3" font-family="Times,serif" font-size="14.00">start_date :datetime</text>
<text text-anchor="start" x="230.666" y="-913.3" font-family="Times,serif" font-size="14.00">end_date :datetime</text>
<text text-anchor="start" x="230.666" y="-899.3" font-family="Times,serif" font-size="14.00">name :string</text>
<text text-anchor="start" x="230.666" y="-885.3" font-family="Times,serif" font-size="14.00">location :string</text>
<text text-anchor="start" x="230.666" y="-871.3" font-family="Times,serif" font-size="14.00">app_start_date :datetime</text>
<text text-anchor="start" x="230.666" y="-857.3" font-family="Times,serif" font-size="14.00">app_end_date :datetime</text>
<text text-anchor="start" x="230.666" y="-843.3" font-family="Times,serif" font-size="14.00">created_at :datetime</text>
<text text-anchor="start" x="230.666" y="-829.3" font-family="Times,serif" font-size="14.00">updated_at :datetime</text>
<text text-anchor="start" x="230.666" y="-815.3" font-family="Times,serif" font-size="14.00">active :boolean</text>
</g>
<!-- CampSession -->
<g id="node5" class="node"><title>CampSession</title>
<path fill="none" stroke="black" d="M282.707,-356.5C282.707,-356.5 401.849,-356.5 401.849,-356.5 407.849,-356.5 413.849,-362.5 413.849,-368.5 413.849,-368.5 413.849,-486.5 413.849,-486.5 413.849,-492.5 407.849,-498.5 401.849,-498.5 401.849,-498.5 282.707,-498.5 282.707,-498.5 276.707,-498.5 270.707,-492.5 270.707,-486.5 270.707,-486.5 270.707,-368.5 270.707,-368.5 270.707,-362.5 276.707,-356.5 282.707,-356.5"/>
<text text-anchor="middle" x="342.278" y="-483.3" font-family="Times,serif" font-size="14.00">CampSession</text>
<polyline fill="none" stroke="black" points="270.707,-476.5 413.849,-476.5 "/>
<text text-anchor="start" x="278.707" y="-461.3" font-family="Times,serif" font-size="14.00">id :integer</text>
<text text-anchor="start" x="278.707" y="-447.3" font-family="Times,serif" font-size="14.00">name :string</text>
<text text-anchor="start" x="278.707" y="-433.3" font-family="Times,serif" font-size="14.00">session_start :datetime</text>
<text text-anchor="start" x="278.707" y="-419.3" font-family="Times,serif" font-size="14.00">session_end :datetime</text>
<text text-anchor="start" x="278.707" y="-405.3" font-family="Times,serif" font-size="14.00">camp_id :integer</text>
<text text-anchor="start" x="278.707" y="-391.3" font-family="Times,serif" font-size="14.00">created_at :datetime</text>
<text text-anchor="start" x="278.707" y="-377.3" font-family="Times,serif" font-size="14.00">updated_at :datetime</text>
<text text-anchor="start" x="278.707" y="-363.3" font-family="Times,serif" font-size="14.00">shortname :string</text>
</g>
<!-- Camp&#45;&gt;CampSession -->
<g id="edge3" class="edge"><title>Camp&#45;&gt;CampSession</title>
<path fill="none" stroke="#146563" d="M307.823,-800.288C315.714,-715.138 327.318,-589.932 334.836,-508.8"/>
<ellipse fill="none" stroke="#146563" cx="307.434" cy="-804.49" rx="4" ry="4"/>
<polygon fill="#146563" stroke="#146563" points="334.855,-508.595 340.259,-499.053 335.317,-503.617 335.778,-498.638 335.778,-498.638 335.778,-498.638 335.317,-503.617 331.297,-498.223 334.855,-508.595 334.855,-508.595"/>
</g>
<!-- Event -->
<g id="node8" class="node"><title>Event</title>
<path fill="none" stroke="black" d="M275.321,-86.5C275.321,-86.5 409.235,-86.5 409.235,-86.5 415.235,-86.5 421.235,-92.5 421.235,-98.5 421.235,-98.5 421.235,-230.5 421.235,-230.5 421.235,-236.5 415.235,-242.5 409.235,-242.5 409.235,-242.5 275.321,-242.5 275.321,-242.5 269.321,-242.5 263.321,-236.5 263.321,-230.5 263.321,-230.5 263.321,-98.5 263.321,-98.5 263.321,-92.5 269.321,-86.5 275.321,-86.5"/>
<text text-anchor="middle" x="342.278" y="-227.3" font-family="Times,serif" font-size="14.00">Event</text>
<polyline fill="none" stroke="black" points="263.321,-220.5 421.235,-220.5 "/>
<text text-anchor="start" x="271.321" y="-205.3" font-family="Times,serif" font-size="14.00">id :integer</text>
<text text-anchor="start" x="271.321" y="-191.3" font-family="Times,serif" font-size="14.00">name :string</text>
<text text-anchor="start" x="271.321" y="-177.3" font-family="Times,serif" font-size="14.00">price_resident :integer</text>
<text text-anchor="start" x="271.321" y="-163.3" font-family="Times,serif" font-size="14.00">price_commuter :integer</text>
<text text-anchor="start" x="271.321" y="-149.3" font-family="Times,serif" font-size="14.00">description :string</text>
<text text-anchor="start" x="271.321" y="-135.3" font-family="Times,serif" font-size="14.00">created_at :datetime</text>
<text text-anchor="start" x="271.321" y="-121.3" font-family="Times,serif" font-size="14.00">updated_at :datetime</text>
<text text-anchor="start" x="271.321" y="-107.3" font-family="Times,serif" font-size="14.00">camp_id :integer</text>
<text text-anchor="start" x="271.321" y="-93.3" font-family="Times,serif" font-size="14.00">camp_session_id :integer</text>
</g>
<!-- Camp&#45;&gt;Event -->
<g id="edge2" class="edge"><title>Camp&#45;&gt;Event</title>
<path fill="none" stroke="#feb00e" d="M274.247,-800.006C246.174,-680.381 210.751,-466.758 261.278,-293 265.353,-278.985 271.485,-265.037 278.587,-251.79"/>
<ellipse fill="none" stroke="#feb00e" cx="275.245" cy="-804.209" rx="4.00001" ry="4.00001"/>
<polygon fill="#feb00e" stroke="#feb00e" points="278.767,-251.469 287.573,-244.934 281.206,-247.104 283.645,-242.739 283.645,-242.739 283.645,-242.739 281.206,-247.104 279.717,-240.544 278.767,-251.469 278.767,-251.469"/>
</g>
<!-- CampApplication -->
<g id="node4" class="node"><title>CampApplication</title>
<path fill="none" stroke="black" d="M502.555,-293.5C502.555,-293.5 680,-293.5 680,-293.5 686,-293.5 692,-299.5 692,-305.5 692,-305.5 692,-549.5 692,-549.5 692,-555.5 686,-561.5 680,-561.5 680,-561.5 502.555,-561.5 502.555,-561.5 496.555,-561.5 490.555,-555.5 490.555,-549.5 490.555,-549.5 490.555,-305.5 490.555,-305.5 490.555,-299.5 496.555,-293.5 502.555,-293.5"/>
<text text-anchor="middle" x="591.278" y="-546.3" font-family="Times,serif" font-size="14.00">CampApplication</text>
<polyline fill="none" stroke="black" points="490.555,-539.5 692,-539.5 "/>
<text text-anchor="start" x="498.555" y="-524.3" font-family="Times,serif" font-size="14.00">id :integer</text>
<text text-anchor="start" x="498.555" y="-510.3" font-family="Times,serif" font-size="14.00">user_id :integer</text>
<text text-anchor="start" x="498.555" y="-496.3" font-family="Times,serif" font-size="14.00">camper_type :string</text>
<text text-anchor="start" x="498.555" y="-482.3" font-family="Times,serif" font-size="14.00">event_partner_req :string</text>
<text text-anchor="start" x="498.555" y="-468.3" font-family="Times,serif" font-size="14.00">has_competed :boolean</text>
<text text-anchor="start" x="498.555" y="-454.3" font-family="Times,serif" font-size="14.00">comments :text</text>
<text text-anchor="start" x="498.555" y="-440.3" font-family="Times,serif" font-size="14.00">roommate_req :string</text>
<text text-anchor="start" x="498.555" y="-426.3" font-family="Times,serif" font-size="14.00">has_laptop :boolean</text>
<text text-anchor="start" x="498.555" y="-412.3" font-family="Times,serif" font-size="14.00">needs_pickup :boolean</text>
<text text-anchor="start" x="498.555" y="-398.3" font-family="Times,serif" font-size="14.00">needs_dropoff :boolean</text>
<text text-anchor="start" x="498.555" y="-384.3" font-family="Times,serif" font-size="14.00">itinerary :text</text>
<text text-anchor="start" x="498.555" y="-370.3" font-family="Times,serif" font-size="14.00">created_at :datetime</text>
<text text-anchor="start" x="498.555" y="-356.3" font-family="Times,serif" font-size="14.00">updated_at :datetime</text>
<text text-anchor="start" x="498.555" y="-342.3" font-family="Times,serif" font-size="14.00">has_allergies :boolean</text>
<text text-anchor="start" x="498.555" y="-328.3" font-family="Times,serif" font-size="14.00">has_dietary_restrictions :boolean</text>
<text text-anchor="start" x="498.555" y="-314.3" font-family="Times,serif" font-size="14.00">allergies :string</text>
<text text-anchor="start" x="498.555" y="-300.3" font-family="Times,serif" font-size="14.00">dietary_restrictions :text</text>
</g>
<!-- CheckOutPermission -->
<g id="node6" class="node"><title>CheckOutPermission</title>
<path fill="none" stroke="black" d="M658.445,-93.5C658.445,-93.5 814.111,-93.5 814.111,-93.5 820.111,-93.5 826.111,-99.5 826.111,-105.5 826.111,-105.5 826.111,-223.5 826.111,-223.5 826.111,-229.5 820.111,-235.5 814.111,-235.5 814.111,-235.5 658.445,-235.5 658.445,-235.5 652.445,-235.5 646.445,-229.5 646.445,-223.5 646.445,-223.5 646.445,-105.5 646.445,-105.5 646.445,-99.5 652.445,-93.5 658.445,-93.5"/>
<text text-anchor="middle" x="736.278" y="-220.3" font-family="Times,serif" font-size="14.00">CheckOutPermission</text>
<polyline fill="none" stroke="black" points="646.445,-213.5 826.111,-213.5 "/>
<text text-anchor="start" x="654.445" y="-198.3" font-family="Times,serif" font-size="14.00">id :integer</text>
<text text-anchor="start" x="654.445" y="-184.3" font-family="Times,serif" font-size="14.00">first_name :string</text>
<text text-anchor="start" x="654.445" y="-170.3" font-family="Times,serif" font-size="14.00">last_name :string</text>
<text text-anchor="start" x="654.445" y="-156.3" font-family="Times,serif" font-size="14.00">relationship :string</text>
<text text-anchor="start" x="654.445" y="-142.3" font-family="Times,serif" font-size="14.00">phone_num :string</text>
<text text-anchor="start" x="654.445" y="-128.3" font-family="Times,serif" font-size="14.00">created_at :datetime</text>
<text text-anchor="start" x="654.445" y="-114.3" font-family="Times,serif" font-size="14.00">updated_at :datetime</text>
<text text-anchor="start" x="654.445" y="-100.3" font-family="Times,serif" font-size="14.00">camp_application_id :integer</text>
</g>
<!-- CampApplication&#45;&gt;CheckOutPermission -->
<g id="edge8" class="edge"><title>CampApplication&#45;&gt;CheckOutPermission</title>
<path fill="none" stroke="#77acbe" d="M669.164,-286.305C677.109,-272.005 684.967,-257.86 692.353,-244.564"/>
<ellipse fill="none" stroke="#77acbe" cx="667.207" cy="-289.827" rx="4.00002" ry="4.00002"/>
<polygon fill="#77acbe" stroke="#77acbe" points="692.531,-244.244 701.321,-237.688 694.959,-239.874 697.387,-235.503 697.387,-235.503 697.387,-235.503 694.959,-239.874 693.454,-233.317 692.531,-244.244 692.531,-244.244"/>
</g>
<!-- DebateRecord -->
<g id="node7" class="node"><title>DebateRecord</title>
<path fill="none" stroke="black" d="M856.445,-72.5C856.445,-72.5 1012.11,-72.5 1012.11,-72.5 1018.11,-72.5 1024.11,-78.5 1024.11,-84.5 1024.11,-84.5 1024.11,-244.5 1024.11,-244.5 1024.11,-250.5 1018.11,-256.5 1012.11,-256.5 1012.11,-256.5 856.445,-256.5 856.445,-256.5 850.445,-256.5 844.445,-250.5 844.445,-244.5 844.445,-244.5 844.445,-84.5 844.445,-84.5 844.445,-78.5 850.445,-72.5 856.445,-72.5"/>
<text text-anchor="middle" x="934.278" y="-241.3" font-family="Times,serif" font-size="14.00">DebateRecord</text>
<polyline fill="none" stroke="black" points="844.445,-234.5 1024.11,-234.5 "/>
<text text-anchor="start" x="852.445" y="-219.3" font-family="Times,serif" font-size="14.00">id :integer</text>
<text text-anchor="start" x="852.445" y="-205.3" font-family="Times,serif" font-size="14.00">tournament_name :string</text>
<text text-anchor="start" x="852.445" y="-191.3" font-family="Times,serif" font-size="14.00">prelim_wins :integer</text>
<text text-anchor="start" x="852.445" y="-177.3" font-family="Times,serif" font-size="14.00">prelim_losses :integer</text>
<text text-anchor="start" x="852.445" y="-163.3" font-family="Times,serif" font-size="14.00">reached_outrounds :boolean</text>
<text text-anchor="start" x="852.445" y="-149.3" font-family="Times,serif" font-size="14.00">outround_reached :string</text>
<text text-anchor="start" x="852.445" y="-135.3" font-family="Times,serif" font-size="14.00">location :string</text>
<text text-anchor="start" x="852.445" y="-121.3" font-family="Times,serif" font-size="14.00">division :string</text>
<text text-anchor="start" x="852.445" y="-107.3" font-family="Times,serif" font-size="14.00">created_at :datetime</text>
<text text-anchor="start" x="852.445" y="-93.3" font-family="Times,serif" font-size="14.00">updated_at :datetime</text>
<text text-anchor="start" x="852.445" y="-79.3" font-family="Times,serif" font-size="14.00">camp_application_id :integer</text>
</g>
<!-- CampApplication&#45;&gt;DebateRecord -->
<g id="edge7" class="edge"><title>CampApplication&#45;&gt;DebateRecord</title>
<path fill="none" stroke="#0410d9" d="M698.715,-356.597C742.111,-327.155 792.052,-291.712 835.278,-257 835.654,-256.698 836.031,-256.394 836.408,-256.09"/>
<ellipse fill="none" stroke="#0410d9" cx="695.398" cy="-358.841" rx="4.00002" ry="4.00002"/>
<polygon fill="#0410d9" stroke="#0410d9" points="836.635,-255.904 847.22,-253.038 840.5,-252.732 844.365,-249.56 844.365,-249.56 844.365,-249.56 840.5,-252.732 841.51,-246.081 836.635,-255.904 836.635,-255.904"/>
</g>
<!-- CampApplication&#45;&gt;Event -->
<g id="edge6" class="edge"><title>CampApplication&#45;&gt;Event</title>
<path fill="none" stroke="#f235f5" d="M483.314,-313.333C463.016,-292.056 442.121,-270.154 422.839,-249.943"/>
<polygon fill="#f235f5" stroke="#f235f5" points="483.456,-313.482 487.103,-323.824 486.908,-317.1 490.359,-320.718 490.359,-320.718 490.359,-320.718 486.908,-317.1 493.615,-317.611 483.456,-313.482 483.456,-313.482"/>
<polygon fill="#f235f5" stroke="#f235f5" points="422.715,-249.813 419.068,-239.472 419.263,-246.196 415.812,-242.578 415.812,-242.578 415.812,-242.578 419.263,-246.196 412.556,-245.684 422.715,-249.813 422.715,-249.813"/>
</g>
<!-- CampapplicationsEvent -->
<g id="node11" class="node"><title>CampapplicationsEvent</title>
<ellipse fill="none" stroke="black" cx="534.278" cy="-164.5" rx="94.6809" ry="18"/>
<text text-anchor="middle" x="534.278" y="-160.3" font-family="Times,serif" font-size="14.00">CampapplicationsEvent</text>
</g>
<!-- CampApplication&#45;&gt;CampapplicationsEvent -->
<g id="edge5" class="edge"><title>CampApplication&#45;&gt;CampapplicationsEvent</title>
<path fill="none" stroke="#9149be" d="M560.45,-285.343C552.681,-249.769 545.144,-215.258 540.17,-192.479"/>
<ellipse fill="none" stroke="#9149be" cx="561.34" cy="-289.416" rx="4.00001" ry="4.00001"/>
<polygon fill="#9149be" stroke="#9149be" points="540.142,-192.351 542.405,-181.621 539.075,-187.467 538.008,-182.582 538.008,-182.582 538.008,-182.582 539.075,-187.467 533.612,-183.542 540.142,-192.351 540.142,-192.351"/>
</g>
<!-- CampSession&#45;&gt;Event -->
<g id="edge10" class="edge"><title>CampSession&#45;&gt;Event</title>
<path fill="none" stroke="#b42a18" d="M342.278,-347.875C342.278,-317.973 342.278,-283.732 342.278,-253.054"/>
<ellipse fill="none" stroke="#b42a18" cx="342.278" cy="-352.213" rx="4" ry="4"/>
<polygon fill="#b42a18" stroke="#b42a18" points="342.278,-252.799 346.778,-242.799 342.278,-247.799 342.278,-242.799 342.278,-242.799 342.278,-242.799 342.278,-247.799 337.778,-242.799 342.278,-252.799 342.278,-252.799"/>
</g>
<!-- EventsCampApplication -->
<g id="node12" class="node"><title>EventsCampApplication</title>
<ellipse fill="none" stroke="black" cx="342.278" cy="-18" rx="97.1035" ry="18"/>
<text text-anchor="middle" x="342.278" y="-13.8" font-family="Times,serif" font-size="14.00">EventsCampApplication</text>
</g>
<!-- Event&#45;&gt;EventsCampApplication -->
<g id="edge14" class="edge"><title>Event&#45;&gt;EventsCampApplication</title>
<path fill="none" stroke="#d91c7b" d="M342.278,-77.7951C342.278,-66.3686 342.278,-55.4075 342.278,-46.1102"/>
<ellipse fill="none" stroke="#d91c7b" cx="342.278" cy="-82.1736" rx="4" ry="4"/>
<polygon fill="#d91c7b" stroke="#d91c7b" points="342.278,-46.0321 346.778,-36.032 342.278,-41.0321 342.278,-36.0321 342.278,-36.0321 342.278,-36.0321 342.278,-41.0321 337.778,-36.0321 342.278,-46.0321 342.278,-46.0321"/>
</g>
<!-- User -->
<g id="node9" class="node"><title>User</title>
<path fill="none" stroke="black" d="M482,-598.5C482,-598.5 662.556,-598.5 662.556,-598.5 668.556,-598.5 674.556,-604.5 674.556,-610.5 674.556,-610.5 674.556,-1176.5 674.556,-1176.5 674.556,-1182.5 668.556,-1188.5 662.556,-1188.5 662.556,-1188.5 482,-1188.5 482,-1188.5 476,-1188.5 470,-1182.5 470,-1176.5 470,-1176.5 470,-610.5 470,-610.5 470,-604.5 476,-598.5 482,-598.5"/>
<text text-anchor="middle" x="572.278" y="-1173.3" font-family="Times,serif" font-size="14.00">User</text>
<polyline fill="none" stroke="black" points="470,-1166.5 674.556,-1166.5 "/>
<text text-anchor="start" x="478" y="-1151.3" font-family="Times,serif" font-size="14.00">id :integer</text>
<text text-anchor="start" x="478" y="-1137.3" font-family="Times,serif" font-size="14.00">email :string</text>
<text text-anchor="start" x="478" y="-1123.3" font-family="Times,serif" font-size="14.00">encrypted_password :string</text>
<text text-anchor="start" x="478" y="-1109.3" font-family="Times,serif" font-size="14.00">reset_password_token :string</text>
<text text-anchor="start" x="478" y="-1095.3" font-family="Times,serif" font-size="14.00">reset_password_sent_at :datetime</text>
<text text-anchor="start" x="478" y="-1081.3" font-family="Times,serif" font-size="14.00">remember_created_at :datetime</text>
<text text-anchor="start" x="478" y="-1067.3" font-family="Times,serif" font-size="14.00">sign_in_count :integer</text>
<text text-anchor="start" x="478" y="-1053.3" font-family="Times,serif" font-size="14.00">current_sign_in_at :datetime</text>
<text text-anchor="start" x="478" y="-1039.3" font-family="Times,serif" font-size="14.00">last_sign_in_at :datetime</text>
<text text-anchor="start" x="478" y="-1025.3" font-family="Times,serif" font-size="14.00">current_sign_in_ip :string</text>
<text text-anchor="start" x="478" y="-1011.3" font-family="Times,serif" font-size="14.00">last_sign_in_ip :string</text>
<text text-anchor="start" x="478" y="-997.3" font-family="Times,serif" font-size="14.00">created_at :datetime</text>
<text text-anchor="start" x="478" y="-983.3" font-family="Times,serif" font-size="14.00">updated_at :datetime</text>
<text text-anchor="start" x="478" y="-969.3" font-family="Times,serif" font-size="14.00">provider :string</text>
<text text-anchor="start" x="478" y="-955.3" font-family="Times,serif" font-size="14.00">uid :string</text>
<text text-anchor="start" x="478" y="-941.3" font-family="Times,serif" font-size="14.00">first_name :string</text>
<text text-anchor="start" x="478" y="-927.3" font-family="Times,serif" font-size="14.00">last_name :string</text>
<text text-anchor="start" x="478" y="-913.3" font-family="Times,serif" font-size="14.00">image :string</text>
<text text-anchor="start" x="478" y="-899.3" font-family="Times,serif" font-size="14.00">gender :string</text>
<text text-anchor="start" x="478" y="-885.3" font-family="Times,serif" font-size="14.00">address :string</text>
<text text-anchor="start" x="478" y="-871.3" font-family="Times,serif" font-size="14.00">school :string</text>
<text text-anchor="start" x="478" y="-857.3" font-family="Times,serif" font-size="14.00">grade :integer</text>
<text text-anchor="start" x="478" y="-843.3" font-family="Times,serif" font-size="14.00">phone_number :string</text>
<text text-anchor="start" x="478" y="-829.3" font-family="Times,serif" font-size="14.00">parent_first :string</text>
<text text-anchor="start" x="478" y="-815.3" font-family="Times,serif" font-size="14.00">parent_last :string</text>
<text text-anchor="start" x="478" y="-801.3" font-family="Times,serif" font-size="14.00">parent_relationship :string</text>
<text text-anchor="start" x="478" y="-787.3" font-family="Times,serif" font-size="14.00">parent_email :string</text>
<text text-anchor="start" x="478" y="-773.3" font-family="Times,serif" font-size="14.00">parent_phone :string</text>
<text text-anchor="start" x="478" y="-759.3" font-family="Times,serif" font-size="14.00">tshirt_size :string</text>
<text text-anchor="start" x="478" y="-745.3" font-family="Times,serif" font-size="14.00">nickname :string</text>
<text text-anchor="start" x="478" y="-731.3" font-family="Times,serif" font-size="14.00">coach_first :string</text>
<text text-anchor="start" x="478" y="-717.3" font-family="Times,serif" font-size="14.00">coach_last :string</text>
<text text-anchor="start" x="478" y="-703.3" font-family="Times,serif" font-size="14.00">coach_email :string</text>
<text text-anchor="start" x="478" y="-689.3" font-family="Times,serif" font-size="14.00">birthday :datetime</text>
<text text-anchor="start" x="478" y="-675.3" font-family="Times,serif" font-size="14.00">address_line1 :string</text>
<text text-anchor="start" x="478" y="-661.3" font-family="Times,serif" font-size="14.00">address_line2 :string</text>
<text text-anchor="start" x="478" y="-647.3" font-family="Times,serif" font-size="14.00">city :string</text>
<text text-anchor="start" x="478" y="-633.3" font-family="Times,serif" font-size="14.00">state :string</text>
<text text-anchor="start" x="478" y="-619.3" font-family="Times,serif" font-size="14.00">zip :integer</text>
<text text-anchor="start" x="478" y="-605.3" font-family="Times,serif" font-size="14.00">spirit_animal :text</text>
</g>
<!-- User&#45;&gt;CampApplication -->
<g id="edge16" class="edge"><title>User&#45;&gt;CampApplication</title>
<path fill="none" stroke="#aff6a9" d="M584.66,-590.103C584.94,-583.266 585.217,-576.519 585.488,-569.888"/>
<ellipse fill="none" stroke="#aff6a9" cx="584.488" cy="-594.316" rx="4" ry="4"/>
<ellipse fill="#aff6a9" stroke="#aff6a9" cx="585.666" cy="-565.551" rx="4" ry="4"/>
</g>
<!-- ActiveRecord::Base -->
<g id="node10" class="node"><title>ActiveRecord::Base</title>
<ellipse fill="none" stroke="black" cx="507.278" cy="-1261.5" rx="81.1422" ry="18"/>
<text text-anchor="middle" x="507.278" y="-1257.3" font-family="Times,serif" font-size="14.00">ActiveRecord::Base</text>
</g>
<!-- ActiveRecord::Base&#45;&gt;Admin -->
<g id="edge1" class="edge"><title>ActiveRecord::Base&#45;&gt;Admin</title>
<path fill="none" stroke="black" d="M472.391,-1245.03C455.677,-1238.11 435.217,-1230.32 416.278,-1225 328.059,-1200.23 283.776,-1247.53 213.278,-1189 156.946,-1142.23 129.174,-1063.73 115.498,-999.537"/>
</g>
<!-- ActiveRecord::Base&#45;&gt;Camp -->
<g id="edge4" class="edge"><title>ActiveRecord::Base&#45;&gt;Camp</title>
<path fill="none" stroke="black" d="M468.751,-1245.59C443.103,-1233.82 410.518,-1215.03 390.278,-1189 342.808,-1127.96 319.934,-1042 309.013,-978.696"/>
</g>
<!-- ActiveRecord::Base&#45;&gt;CampApplication -->
<g id="edge9" class="edge"><title>ActiveRecord::Base&#45;&gt;CampApplication</title>
<path fill="none" stroke="black" d="M575.372,-1251.54C613.978,-1242.59 659.244,-1224.7 683.278,-1189 756.614,-1080.05 715.597,-725.295 683.278,-598 680.188,-585.83 676.029,-573.589 671.181,-561.558"/>
</g>
<!-- ActiveRecord::Base&#45;&gt;CampSession -->
<g id="edge11" class="edge"><title>ActiveRecord::Base&#45;&gt;CampSession</title>
<path fill="none" stroke="black" d="M480.699,-1244.37C462.519,-1231.75 439.715,-1212.44 428.278,-1189 370.538,-1070.65 406.327,-727.987 385.278,-598 379.94,-565.034 371.25,-529.103 363.074,-498.842"/>
</g>
<!-- ActiveRecord::Base&#45;&gt;CheckOutPermission -->
<g id="edge12" class="edge"><title>ActiveRecord::Base&#45;&gt;CheckOutPermission</title>
<path fill="none" stroke="black" d="M584.428,-1255.62C630.947,-1248.25 686.905,-1230.6 717.278,-1189 932.227,-894.561 814.91,-414.851 759.792,-235.814"/>
</g>
<!-- ActiveRecord::Base&#45;&gt;DebateRecord -->
<g id="edge13" class="edge"><title>ActiveRecord::Base&#45;&gt;DebateRecord</title>
<path fill="none" stroke="black" d="M576.933,-1252.07C652.062,-1241.48 764.778,-1220.76 793.278,-1189 1031.23,-923.838 984.816,-454.009 952.062,-256.73"/>
</g>
<!-- ActiveRecord::Base&#45;&gt;Event -->
<g id="edge15" class="edge"><title>ActiveRecord::Base&#45;&gt;Event</title>
<path fill="none" stroke="black" d="M492.705,-1243.62C481.837,-1229.91 467.791,-1209.54 461.278,-1189 340.812,-809.06 542.656,-673.283 423.278,-293 417.858,-275.736 409.476,-258.515 400.121,-242.57"/>
</g>
<!-- ActiveRecord::Base&#45;&gt;User -->
<g id="edge17" class="edge"><title>ActiveRecord::Base&#45;&gt;User</title>
<path fill="none" stroke="black" d="M510.326,-1243.34C512.585,-1230.62 515.964,-1211.59 519.999,-1188.87"/>
</g>
</g>
</svg>
