<?xml version="1.0" encoding="UTF-8" standalone="no"?>
<!DOCTYPE svg PUBLIC "-//W3C//DTD SVG 1.1//EN"
 "http://www.w3.org/Graphics/SVG/1.1/DTD/svg11.dtd">
<!-- Generated by graphviz version 2.38.0 (20140413.2041)
 -->
<!-- Title: models_diagram Pages: 1 -->
<svg width="938pt" height="1306pt"
 viewBox="0.00 0.00 938.11 1306.00" xmlns="http://www.w3.org/2000/svg" xmlns:xlink="http://www.w3.org/1999/xlink">
<g id="graph0" class="graph" transform="scale(1 1) rotate(0) translate(4 1302)">
<title>models_diagram</title>
<polygon fill="white" stroke="none" points="-4,4 -4,-1302 934.111,-1302 934.111,4 -4,4"/>
<!-- _diagram_info -->
<g id="node1" class="node"><title>_diagram_info</title>
<text text-anchor="start" x="103.066" y="-1283.6" font-family="Times,serif" font-size="13.00">Models diagram</text>
<text text-anchor="start" x="103.066" y="-1270.6" font-family="Times,serif" font-size="13.00">Date: May 11 2014 &#45; 05:56</text>
<text text-anchor="start" x="103.066" y="-1257.6" font-family="Times,serif" font-size="13.00">Migration version: 20140511124740</text>
<text text-anchor="start" x="103.066" y="-1244.6" font-family="Times,serif" font-size="13.00">Generated by RailRoady 1.1.1</text>
<text text-anchor="start" x="103.066" y="-1231.6" font-family="Times,serif" font-size="13.00">http://railroady.prestonlee.com</text>
</g>
<!-- Admin -->
<g id="node2" class="node"><title>Admin</title>
<path fill="none" stroke="black" d="M12,-787.5C12,-787.5 192.556,-787.5 192.556,-787.5 198.556,-787.5 204.556,-793.5 204.556,-799.5 204.556,-799.5 204.556,-987.5 204.556,-987.5 204.556,-993.5 198.556,-999.5 192.556,-999.5 192.556,-999.5 12,-999.5 12,-999.5 6,-999.5 0,-993.5 0,-987.5 0,-987.5 0,-799.5 0,-799.5 0,-793.5 6,-787.5 12,-787.5"/>
<text text-anchor="middle" x="102.278" y="-984.3" font-family="Times,serif" font-size="14.00">Admin</text>
<polyline fill="none" stroke="black" points="0,-977.5 204.556,-977.5 "/>
<text text-anchor="start" x="8" y="-962.3" font-family="Times,serif" font-size="14.00">id :integer</text>
<text text-anchor="start" x="8" y="-948.3" font-family="Times,serif" font-size="14.00">email :string</text>
<text text-anchor="start" x="8" y="-934.3" font-family="Times,serif" font-size="14.00">encrypted_password :string</text>
<text text-anchor="start" x="8" y="-920.3" font-family="Times,serif" font-size="14.00">reset_password_token :string</text>
<text text-anchor="start" x="8" y="-906.3" font-family="Times,serif" font-size="14.00">reset_password_sent_at :datetime</text>
<text text-anchor="start" x="8" y="-892.3" font-family="Times,serif" font-size="14.00">remember_created_at :datetime</text>
<text text-anchor="start" x="8" y="-878.3" font-family="Times,serif" font-size="14.00">sign_in_count :integer</text>
<text text-anchor="start" x="8" y="-864.3" font-family="Times,serif" font-size="14.00">current_sign_in_at :datetime</text>
<text text-anchor="start" x="8" y="-850.3" font-family="Times,serif" font-size="14.00">last_sign_in_at :datetime</text>
<text text-anchor="start" x="8" y="-836.3" font-family="Times,serif" font-size="14.00">current_sign_in_ip :string</text>
<text text-anchor="start" x="8" y="-822.3" font-family="Times,serif" font-size="14.00">last_sign_in_ip :string</text>
<text text-anchor="start" x="8" y="-808.3" font-family="Times,serif" font-size="14.00">created_at :datetime</text>
<text text-anchor="start" x="8" y="-794.3" font-family="Times,serif" font-size="14.00">updated_at :datetime</text>
</g>
<!-- Camp -->
<g id="node3" class="node"><title>Camp</title>
<path fill="none" stroke="black" d="M272.666,-342.5C272.666,-342.5 401.89,-342.5 401.89,-342.5 407.89,-342.5 413.89,-348.5 413.89,-354.5 413.89,-354.5 413.89,-500.5 413.89,-500.5 413.89,-506.5 407.89,-512.5 401.89,-512.5 401.89,-512.5 272.666,-512.5 272.666,-512.5 266.666,-512.5 260.666,-506.5 260.666,-500.5 260.666,-500.5 260.666,-354.5 260.666,-354.5 260.666,-348.5 266.666,-342.5 272.666,-342.5"/>
<text text-anchor="middle" x="337.278" y="-497.3" font-family="Times,serif" font-size="14.00">Camp</text>
<polyline fill="none" stroke="black" points="260.666,-490.5 413.89,-490.5 "/>
<text text-anchor="start" x="268.666" y="-475.3" font-family="Times,serif" font-size="14.00">id :integer</text>
<text text-anchor="start" x="268.666" y="-461.3" font-family="Times,serif" font-size="14.00">start_date :datetime</text>
<text text-anchor="start" x="268.666" y="-447.3" font-family="Times,serif" font-size="14.00">end_date :datetime</text>
<text text-anchor="start" x="268.666" y="-433.3" font-family="Times,serif" font-size="14.00">name :string</text>
<text text-anchor="start" x="268.666" y="-419.3" font-family="Times,serif" font-size="14.00">location :string</text>
<text text-anchor="start" x="268.666" y="-405.3" font-family="Times,serif" font-size="14.00">app_start_date :datetime</text>
<text text-anchor="start" x="268.666" y="-391.3" font-family="Times,serif" font-size="14.00">app_end_date :datetime</text>
<text text-anchor="start" x="268.666" y="-377.3" font-family="Times,serif" font-size="14.00">created_at :datetime</text>
<text text-anchor="start" x="268.666" y="-363.3" font-family="Times,serif" font-size="14.00">updated_at :datetime</text>
<text text-anchor="start" x="268.666" y="-349.3" font-family="Times,serif" font-size="14.00">active :boolean</text>
</g>
<!-- Event -->
<g id="node7" class="node"><title>Event</title>
<path fill="none" stroke="black" d="M185.279,-72.5C185.279,-72.5 315.276,-72.5 315.276,-72.5 321.276,-72.5 327.276,-78.5 327.276,-84.5 327.276,-84.5 327.276,-244.5 327.276,-244.5 327.276,-250.5 321.276,-256.5 315.276,-256.5 315.276,-256.5 185.279,-256.5 185.279,-256.5 179.279,-256.5 173.279,-250.5 173.279,-244.5 173.279,-244.5 173.279,-84.5 173.279,-84.5 173.279,-78.5 179.279,-72.5 185.279,-72.5"/>
<text text-anchor="middle" x="250.278" y="-241.3" font-family="Times,serif" font-size="14.00">Event</text>
<polyline fill="none" stroke="black" points="173.279,-234.5 327.276,-234.5 "/>
<text text-anchor="start" x="181.279" y="-219.3" font-family="Times,serif" font-size="14.00">id :integer</text>
<text text-anchor="start" x="181.279" y="-205.3" font-family="Times,serif" font-size="14.00">name :string</text>
<text text-anchor="start" x="181.279" y="-191.3" font-family="Times,serif" font-size="14.00">start_date :datetime</text>
<text text-anchor="start" x="181.279" y="-177.3" font-family="Times,serif" font-size="14.00">end_date :datetime</text>
<text text-anchor="start" x="181.279" y="-163.3" font-family="Times,serif" font-size="14.00">session :string</text>
<text text-anchor="start" x="181.279" y="-149.3" font-family="Times,serif" font-size="14.00">price_resident :integer</text>
<text text-anchor="start" x="181.279" y="-135.3" font-family="Times,serif" font-size="14.00">price_commuter :integer</text>
<text text-anchor="start" x="181.279" y="-121.3" font-family="Times,serif" font-size="14.00">description :string</text>
<text text-anchor="start" x="181.279" y="-107.3" font-family="Times,serif" font-size="14.00">created_at :datetime</text>
<text text-anchor="start" x="181.279" y="-93.3" font-family="Times,serif" font-size="14.00">updated_at :datetime</text>
<text text-anchor="start" x="181.279" y="-79.3" font-family="Times,serif" font-size="14.00">camp_id :integer</text>
</g>
<!-- Camp&#45;&gt;Event -->
<g id="edge2" class="edge"><title>Camp&#45;&gt;Event</title>
<path fill="none" stroke="#d96d65" d="M306.675,-334.691C299.285,-312.52 291.348,-288.712 283.831,-266.159"/>
<ellipse fill="none" stroke="#d96d65" cx="308.007" cy="-338.687" rx="4.00001" ry="4.00001"/>
<polygon fill="#d96d65" stroke="#d96d65" points="283.8,-266.066 284.907,-255.156 282.219,-261.322 280.637,-256.579 280.637,-256.579 280.637,-256.579 282.219,-261.322 276.368,-258.002 283.8,-266.066 283.8,-266.066"/>
</g>
<!-- CampApplication -->
<g id="node4" class="node"><title>CampApplication</title>
<path fill="none" stroke="black" d="M443.555,-293.5C443.555,-293.5 621,-293.5 621,-293.5 627,-293.5 633,-299.5 633,-305.5 633,-305.5 633,-549.5 633,-549.5 633,-555.5 627,-561.5 621,-561.5 621,-561.5 443.555,-561.5 443.555,-561.5 437.555,-561.5 431.555,-555.5 431.555,-549.5 431.555,-549.5 431.555,-305.5 431.555,-305.5 431.555,-299.5 437.555,-293.5 443.555,-293.5"/>
<text text-anchor="middle" x="532.278" y="-546.3" font-family="Times,serif" font-size="14.00">CampApplication</text>
<polyline fill="none" stroke="black" points="431.555,-539.5 633,-539.5 "/>
<text text-anchor="start" x="439.555" y="-524.3" font-family="Times,serif" font-size="14.00">id :integer</text>
<text text-anchor="start" x="439.555" y="-510.3" font-family="Times,serif" font-size="14.00">user_id :integer</text>
<text text-anchor="start" x="439.555" y="-496.3" font-family="Times,serif" font-size="14.00">camper_type :string</text>
<text text-anchor="start" x="439.555" y="-482.3" font-family="Times,serif" font-size="14.00">event_partner_req :string</text>
<text text-anchor="start" x="439.555" y="-468.3" font-family="Times,serif" font-size="14.00">has_competed :boolean</text>
<text text-anchor="start" x="439.555" y="-454.3" font-family="Times,serif" font-size="14.00">comments :text</text>
<text text-anchor="start" x="439.555" y="-440.3" font-family="Times,serif" font-size="14.00">roommate_req :string</text>
<text text-anchor="start" x="439.555" y="-426.3" font-family="Times,serif" font-size="14.00">has_laptop :boolean</text>
<text text-anchor="start" x="439.555" y="-412.3" font-family="Times,serif" font-size="14.00">needs_pickup :boolean</text>
<text text-anchor="start" x="439.555" y="-398.3" font-family="Times,serif" font-size="14.00">needs_dropoff :boolean</text>
<text text-anchor="start" x="439.555" y="-384.3" font-family="Times,serif" font-size="14.00">itinerary :text</text>
<text text-anchor="start" x="439.555" y="-370.3" font-family="Times,serif" font-size="14.00">created_at :datetime</text>
<text text-anchor="start" x="439.555" y="-356.3" font-family="Times,serif" font-size="14.00">updated_at :datetime</text>
<text text-anchor="start" x="439.555" y="-342.3" font-family="Times,serif" font-size="14.00">has_allergies :boolean</text>
<text text-anchor="start" x="439.555" y="-328.3" font-family="Times,serif" font-size="14.00">has_dietary_restrictions :boolean</text>
<text text-anchor="start" x="439.555" y="-314.3" font-family="Times,serif" font-size="14.00">allergies :string</text>
<text text-anchor="start" x="439.555" y="-300.3" font-family="Times,serif" font-size="14.00">dietary_restrictions :text</text>
</g>
<!-- CheckOutPermission -->
<g id="node5" class="node"><title>CheckOutPermission</title>
<path fill="none" stroke="black" d="M564.445,-93.5C564.445,-93.5 720.111,-93.5 720.111,-93.5 726.111,-93.5 732.111,-99.5 732.111,-105.5 732.111,-105.5 732.111,-223.5 732.111,-223.5 732.111,-229.5 726.111,-235.5 720.111,-235.5 720.111,-235.5 564.445,-235.5 564.445,-235.5 558.445,-235.5 552.445,-229.5 552.445,-223.5 552.445,-223.5 552.445,-105.5 552.445,-105.5 552.445,-99.5 558.445,-93.5 564.445,-93.5"/>
<text text-anchor="middle" x="642.278" y="-220.3" font-family="Times,serif" font-size="14.00">CheckOutPermission</text>
<polyline fill="none" stroke="black" points="552.445,-213.5 732.111,-213.5 "/>
<text text-anchor="start" x="560.445" y="-198.3" font-family="Times,serif" font-size="14.00">id :integer</text>
<text text-anchor="start" x="560.445" y="-184.3" font-family="Times,serif" font-size="14.00">first_name :string</text>
<text text-anchor="start" x="560.445" y="-170.3" font-family="Times,serif" font-size="14.00">last_name :string</text>
<text text-anchor="start" x="560.445" y="-156.3" font-family="Times,serif" font-size="14.00">relationship :string</text>
<text text-anchor="start" x="560.445" y="-142.3" font-family="Times,serif" font-size="14.00">phone_num :string</text>
<text text-anchor="start" x="560.445" y="-128.3" font-family="Times,serif" font-size="14.00">created_at :datetime</text>
<text text-anchor="start" x="560.445" y="-114.3" font-family="Times,serif" font-size="14.00">updated_at :datetime</text>
<text text-anchor="start" x="560.445" y="-100.3" font-family="Times,serif" font-size="14.00">camp_application_id :integer</text>
</g>
<!-- CampApplication&#45;&gt;CheckOutPermission -->
<g id="edge7" class="edge"><title>CampApplication&#45;&gt;CheckOutPermission</title>
<path fill="none" stroke="#647049" d="M591.561,-285.838C597.475,-271.804 603.324,-257.927 608.83,-244.863"/>
<ellipse fill="none" stroke="#647049" cx="589.959" cy="-289.638" rx="4.00002" ry="4.00002"/>
<polygon fill="#647049" stroke="#647049" points="608.891,-244.718 616.921,-237.251 610.833,-240.11 612.775,-235.503 612.775,-235.503 612.775,-235.503 610.833,-240.11 608.628,-233.755 608.891,-244.718 608.891,-244.718"/>
</g>
<!-- DebateRecord -->
<g id="node6" class="node"><title>DebateRecord</title>
<path fill="none" stroke="black" d="M762.445,-72.5C762.445,-72.5 918.111,-72.5 918.111,-72.5 924.111,-72.5 930.111,-78.5 930.111,-84.5 930.111,-84.5 930.111,-244.5 930.111,-244.5 930.111,-250.5 924.111,-256.5 918.111,-256.5 918.111,-256.5 762.445,-256.5 762.445,-256.5 756.445,-256.5 750.445,-250.5 750.445,-244.5 750.445,-244.5 750.445,-84.5 750.445,-84.5 750.445,-78.5 756.445,-72.5 762.445,-72.5"/>
<text text-anchor="middle" x="840.278" y="-241.3" font-family="Times,serif" font-size="14.00">DebateRecord</text>
<polyline fill="none" stroke="black" points="750.445,-234.5 930.111,-234.5 "/>
<text text-anchor="start" x="758.445" y="-219.3" font-family="Times,serif" font-size="14.00">id :integer</text>
<text text-anchor="start" x="758.445" y="-205.3" font-family="Times,serif" font-size="14.00">tournament_name :string</text>
<text text-anchor="start" x="758.445" y="-191.3" font-family="Times,serif" font-size="14.00">prelim_wins :integer</text>
<text text-anchor="start" x="758.445" y="-177.3" font-family="Times,serif" font-size="14.00">prelim_losses :integer</text>
<text text-anchor="start" x="758.445" y="-163.3" font-family="Times,serif" font-size="14.00">reached_outrounds :boolean</text>
<text text-anchor="start" x="758.445" y="-149.3" font-family="Times,serif" font-size="14.00">outround_reached :string</text>
<text text-anchor="start" x="758.445" y="-135.3" font-family="Times,serif" font-size="14.00">location :string</text>
<text text-anchor="start" x="758.445" y="-121.3" font-family="Times,serif" font-size="14.00">division :string</text>
<text text-anchor="start" x="758.445" y="-107.3" font-family="Times,serif" font-size="14.00">created_at :datetime</text>
<text text-anchor="start" x="758.445" y="-93.3" font-family="Times,serif" font-size="14.00">updated_at :datetime</text>
<text text-anchor="start" x="758.445" y="-79.3" font-family="Times,serif" font-size="14.00">camp_application_id :integer</text>
</g>
<!-- CampApplication&#45;&gt;DebateRecord -->
<g id="edge6" class="edge"><title>CampApplication&#45;&gt;DebateRecord</title>
<path fill="none" stroke="#4f53e9" d="M639.582,-341.677C672.572,-315.013 708.749,-285.171 741.278,-257 741.748,-256.593 742.219,-256.185 742.69,-255.775"/>
<ellipse fill="none" stroke="#4f53e9" cx="636.142" cy="-344.453" rx="4.00002" ry="4.00002"/>
<polygon fill="#4f53e9" stroke="#4f53e9" points="742.869,-255.619 753.358,-252.419 746.631,-252.325 750.394,-249.032 750.394,-249.032 750.394,-249.032 746.631,-252.325 747.43,-245.646 742.869,-255.619 742.869,-255.619"/>
</g>
<!-- CampApplication&#45;&gt;Event -->
<g id="edge5" class="edge"><title>CampApplication&#45;&gt;Event</title>
<path fill="none" stroke="#56c575" d="M423.537,-293.193C423.45,-293.128 423.364,-293.064 423.278,-293 389.693,-268.036 370.712,-280.778 336.278,-257 336.093,-256.872 335.908,-256.744 335.723,-256.615"/>
<polygon fill="#56c575" stroke="#56c575" points="423.598,-293.241 428.703,-302.946 427.537,-296.321 431.475,-299.401 431.475,-299.401 431.475,-299.401 427.537,-296.321 434.247,-295.857 423.598,-293.241 423.598,-293.241"/>
<polygon fill="#56c575" stroke="#56c575" points="335.531,-256.474 330.149,-246.919 331.505,-253.508 327.48,-250.542 327.48,-250.542 327.48,-250.542 331.505,-253.508 324.811,-254.164 335.531,-256.474 335.531,-256.474"/>
</g>
<!-- CampapplicationsEvent -->
<g id="node10" class="node"><title>CampapplicationsEvent</title>
<ellipse fill="none" stroke="black" cx="440.278" cy="-164.5" rx="94.6809" ry="18"/>
<text text-anchor="middle" x="440.278" y="-160.3" font-family="Times,serif" font-size="14.00">CampapplicationsEvent</text>
</g>
<!-- CampApplication&#45;&gt;CampapplicationsEvent -->
<g id="edge4" class="edge"><title>CampApplication&#45;&gt;CampapplicationsEvent</title>
<path fill="none" stroke="#5533c1" d="M482.612,-285.6C469.988,-249.785 457.734,-215.022 449.687,-192.192"/>
<ellipse fill="none" stroke="#5533c1" cx="484.005" cy="-289.551" rx="4.00001" ry="4.00001"/>
<polygon fill="#5533c1" stroke="#5533c1" points="449.623,-192.013 450.543,-181.086 447.961,-187.297 446.299,-182.582 446.299,-182.582 446.299,-182.582 447.961,-187.297 442.055,-184.078 449.623,-192.013 449.623,-192.013"/>
</g>
<!-- EventsCampApplication -->
<g id="node11" class="node"><title>EventsCampApplication</title>
<ellipse fill="none" stroke="black" cx="250.278" cy="-18" rx="97.1035" ry="18"/>
<text text-anchor="middle" x="250.278" y="-13.8" font-family="Times,serif" font-size="14.00">EventsCampApplication</text>
</g>
<!-- Event&#45;&gt;EventsCampApplication -->
<g id="edge11" class="edge"><title>Event&#45;&gt;EventsCampApplication</title>
<path fill="none" stroke="#340a58" d="M250.278,-64.1559C250.278,-57.8807 250.278,-51.9243 250.278,-46.5188"/>
<ellipse fill="none" stroke="#340a58" cx="250.278" cy="-68.3959" rx="4" ry="4"/>
<polygon fill="#340a58" stroke="#340a58" points="250.278,-46.2709 254.778,-36.2708 250.278,-41.2709 250.278,-36.2709 250.278,-36.2709 250.278,-36.2709 250.278,-41.2709 245.778,-36.2709 250.278,-46.2709 250.278,-46.2709"/>
</g>
<!-- User -->
<g id="node8" class="node"><title>User</title>
<path fill="none" stroke="black" d="M441,-598.5C441,-598.5 621.556,-598.5 621.556,-598.5 627.556,-598.5 633.556,-604.5 633.556,-610.5 633.556,-610.5 633.556,-1176.5 633.556,-1176.5 633.556,-1182.5 627.556,-1188.5 621.556,-1188.5 621.556,-1188.5 441,-1188.5 441,-1188.5 435,-1188.5 429,-1182.5 429,-1176.5 429,-1176.5 429,-610.5 429,-610.5 429,-604.5 435,-598.5 441,-598.5"/>
<text text-anchor="middle" x="531.278" y="-1173.3" font-family="Times,serif" font-size="14.00">User</text>
<polyline fill="none" stroke="black" points="429,-1166.5 633.556,-1166.5 "/>
<text text-anchor="start" x="437" y="-1151.3" font-family="Times,serif" font-size="14.00">id :integer</text>
<text text-anchor="start" x="437" y="-1137.3" font-family="Times,serif" font-size="14.00">email :string</text>
<text text-anchor="start" x="437" y="-1123.3" font-family="Times,serif" font-size="14.00">encrypted_password :string</text>
<text text-anchor="start" x="437" y="-1109.3" font-family="Times,serif" font-size="14.00">reset_password_token :string</text>
<text text-anchor="start" x="437" y="-1095.3" font-family="Times,serif" font-size="14.00">reset_password_sent_at :datetime</text>
<text text-anchor="start" x="437" y="-1081.3" font-family="Times,serif" font-size="14.00">remember_created_at :datetime</text>
<text text-anchor="start" x="437" y="-1067.3" font-family="Times,serif" font-size="14.00">sign_in_count :integer</text>
<text text-anchor="start" x="437" y="-1053.3" font-family="Times,serif" font-size="14.00">current_sign_in_at :datetime</text>
<text text-anchor="start" x="437" y="-1039.3" font-family="Times,serif" font-size="14.00">last_sign_in_at :datetime</text>
<text text-anchor="start" x="437" y="-1025.3" font-family="Times,serif" font-size="14.00">current_sign_in_ip :string</text>
<text text-anchor="start" x="437" y="-1011.3" font-family="Times,serif" font-size="14.00">last_sign_in_ip :string</text>
<text text-anchor="start" x="437" y="-997.3" font-family="Times,serif" font-size="14.00">created_at :datetime</text>
<text text-anchor="start" x="437" y="-983.3" font-family="Times,serif" font-size="14.00">updated_at :datetime</text>
<text text-anchor="start" x="437" y="-969.3" font-family="Times,serif" font-size="14.00">provider :string</text>
<text text-anchor="start" x="437" y="-955.3" font-family="Times,serif" font-size="14.00">uid :string</text>
<text text-anchor="start" x="437" y="-941.3" font-family="Times,serif" font-size="14.00">first_name :string</text>
<text text-anchor="start" x="437" y="-927.3" font-family="Times,serif" font-size="14.00">last_name :string</text>
<text text-anchor="start" x="437" y="-913.3" font-family="Times,serif" font-size="14.00">image :string</text>
<text text-anchor="start" x="437" y="-899.3" font-family="Times,serif" font-size="14.00">gender :string</text>
<text text-anchor="start" x="437" y="-885.3" font-family="Times,serif" font-size="14.00">address :string</text>
<text text-anchor="start" x="437" y="-871.3" font-family="Times,serif" font-size="14.00">school :string</text>
<text text-anchor="start" x="437" y="-857.3" font-family="Times,serif" font-size="14.00">grade :integer</text>
<text text-anchor="start" x="437" y="-843.3" font-family="Times,serif" font-size="14.00">phone_number :string</text>
<text text-anchor="start" x="437" y="-829.3" font-family="Times,serif" font-size="14.00">parent_first :string</text>
<text text-anchor="start" x="437" y="-815.3" font-family="Times,serif" font-size="14.00">parent_last :string</text>
<text text-anchor="start" x="437" y="-801.3" font-family="Times,serif" font-size="14.00">parent_relationship :string</text>
<text text-anchor="start" x="437" y="-787.3" font-family="Times,serif" font-size="14.00">parent_email :string</text>
<text text-anchor="start" x="437" y="-773.3" font-family="Times,serif" font-size="14.00">parent_phone :string</text>
<text text-anchor="start" x="437" y="-759.3" font-family="Times,serif" font-size="14.00">tshirt_size :string</text>
<text text-anchor="start" x="437" y="-745.3" font-family="Times,serif" font-size="14.00">nickname :string</text>
<text text-anchor="start" x="437" y="-731.3" font-family="Times,serif" font-size="14.00">coach_first :string</text>
<text text-anchor="start" x="437" y="-717.3" font-family="Times,serif" font-size="14.00">coach_last :string</text>
<text text-anchor="start" x="437" y="-703.3" font-family="Times,serif" font-size="14.00">coach_email :string</text>
<text text-anchor="start" x="437" y="-689.3" font-family="Times,serif" font-size="14.00">birthday :datetime</text>
<text text-anchor="start" x="437" y="-675.3" font-family="Times,serif" font-size="14.00">address_line1 :string</text>
<text text-anchor="start" x="437" y="-661.3" font-family="Times,serif" font-size="14.00">address_line2 :string</text>
<text text-anchor="start" x="437" y="-647.3" font-family="Times,serif" font-size="14.00">city :string</text>
<text text-anchor="start" x="437" y="-633.3" font-family="Times,serif" font-size="14.00">state :string</text>
<text text-anchor="start" x="437" y="-619.3" font-family="Times,serif" font-size="14.00">zip :integer</text>
<text text-anchor="start" x="437" y="-605.3" font-family="Times,serif" font-size="14.00">spirit_animal :text</text>
</g>
<!-- User&#45;&gt;CampApplication -->
<g id="edge13" class="edge"><title>User&#45;&gt;CampApplication</title>
<path fill="none" stroke="#8dc116" d="M531.93,-590.103C531.944,-583.266 531.959,-576.519 531.973,-569.888"/>
<ellipse fill="none" stroke="#8dc116" cx="531.921" cy="-594.313" rx="4" ry="4"/>
<ellipse fill="#8dc116" stroke="#8dc116" cx="531.982" cy="-565.555" rx="4" ry="4"/>
</g>
<!-- ActiveRecord::Base -->
<g id="node9" class="node"><title>ActiveRecord::Base</title>
<ellipse fill="none" stroke="black" cx="401.278" cy="-1261.5" rx="81.1422" ry="18"/>
<text text-anchor="middle" x="401.278" y="-1257.3" font-family="Times,serif" font-size="14.00">ActiveRecord::Base</text>
</g>
<!-- ActiveRecord::Base&#45;&gt;Admin -->
<g id="edge1" class="edge"><title>ActiveRecord::Base&#45;&gt;Admin</title>
<path fill="none" stroke="black" d="M362.959,-1245.56C309.354,-1224.65 218.448,-1189.17 218.278,-1189 167.111,-1137.97 137.902,-1061.66 121.594,-999.507"/>
</g>
<!-- ActiveRecord::Base&#45;&gt;Camp -->
<g id="edge3" class="edge"><title>ActiveRecord::Base&#45;&gt;Camp</title>
<path fill="none" stroke="black" d="M397.261,-1243.26C394.055,-1228.84 389.712,-1207.69 387.278,-1189 355.452,-944.625 343.47,-653.292 339.303,-512.68"/>
</g>
<!-- ActiveRecord::Base&#45;&gt;CampApplication -->
<g id="edge8" class="edge"><title>ActiveRecord::Base&#45;&gt;CampApplication</title>
<path fill="none" stroke="black" d="M400.503,-1243.25C396.59,-1151.8 380.683,-723.206 420.278,-598 424.16,-585.725 429.211,-573.505 435.02,-561.573"/>
</g>
<!-- ActiveRecord::Base&#45;&gt;CheckOutPermission -->
<g id="edge9" class="edge"><title>ActiveRecord::Base&#45;&gt;CheckOutPermission</title>
<path fill="none" stroke="black" d="M465.162,-1250.33C529.116,-1238.7 621.002,-1217.5 642.278,-1189 754.343,-1038.86 681.785,-441.592 652.724,-235.697"/>
</g>
<!-- ActiveRecord::Base&#45;&gt;DebateRecord -->
<g id="edge10" class="edge"><title>ActiveRecord::Base&#45;&gt;DebateRecord</title>
<path fill="none" stroke="black" d="M470.62,-1251.97C545.424,-1241.29 657.688,-1220.49 686.278,-1189 926.192,-924.752 886.523,-454.418 856.692,-256.868"/>
</g>
<!-- ActiveRecord::Base&#45;&gt;Event -->
<g id="edge12" class="edge"><title>ActiveRecord::Base&#45;&gt;Event</title>
<path fill="none" stroke="black" d="M381.685,-1243.78C367.467,-1230.47 349.074,-1210.54 339.278,-1189 222.765,-932.856 271.235,-842.689 251.278,-562 243.845,-457.46 244.899,-337.023 246.975,-256.574"/>
</g>
<!-- ActiveRecord::Base&#45;&gt;User -->
<g id="edge14" class="edge"><title>ActiveRecord::Base&#45;&gt;User</title>
<path fill="none" stroke="black" d="M407.374,-1243.34C412.293,-1229.49 419.869,-1208.16 428.903,-1182.72"/>
</g>
</g>
</svg>
