<?xml version="1.0" encoding="UTF-8" standalone="no"?>
<!DOCTYPE svg PUBLIC "-//W3C//DTD SVG 1.1//EN"
 "http://www.w3.org/Graphics/SVG/1.1/DTD/svg11.dtd">
<!-- Generated by graphviz version 2.38.0 (20140413.2041)
 -->
<!-- Title: models_diagram Pages: 1 -->
<svg width="739pt" height="369pt"
 viewBox="0.00 0.00 738.90 369.00" xmlns="http://www.w3.org/2000/svg" xmlns:xlink="http://www.w3.org/1999/xlink">
<g id="graph0" class="graph" transform="scale(1 1) rotate(0) translate(4 365)">
<title>models_diagram</title>
<polygon fill="white" stroke="none" points="-4,4 -4,-365 734.896,-365 734.896,4 -4,4"/>
<!-- _diagram_info -->
<g id="node1" class="node"><title>_diagram_info</title>
<text text-anchor="start" x="8" y="-346.6" font-family="Times,serif" font-size="13.00">Models diagram</text>
<text text-anchor="start" x="8" y="-333.6" font-family="Times,serif" font-size="13.00">Date: May 11 2014 &#45; 05:56</text>
<text text-anchor="start" x="8" y="-320.6" font-family="Times,serif" font-size="13.00">Migration version: 20140511124740</text>
<text text-anchor="start" x="8" y="-307.6" font-family="Times,serif" font-size="13.00">Generated by RailRoady 1.1.1</text>
<text text-anchor="start" x="8" y="-294.6" font-family="Times,serif" font-size="13.00">http://railroady.prestonlee.com</text>
</g>
<!-- Admin -->
<g id="node2" class="node"><title>Admin</title>
<ellipse fill="none" stroke="black" cx="117.212" cy="-234" rx="34.8458" ry="18"/>
<text text-anchor="middle" x="117.212" y="-229.8" font-family="Times,serif" font-size="14.00">Admin</text>
</g>
<!-- Camp -->
<g id="node3" class="node"><title>Camp</title>
<ellipse fill="none" stroke="black" cx="239.212" cy="-162" rx="31.4636" ry="18"/>
<text text-anchor="middle" x="239.212" y="-157.8" font-family="Times,serif" font-size="14.00">Camp</text>
</g>
<!-- Event -->
<g id="node7" class="node"><title>Event</title>
<ellipse fill="none" stroke="black" cx="165.212" cy="-90" rx="30.9706" ry="18"/>
<text text-anchor="middle" x="165.212" y="-85.8" font-family="Times,serif" font-size="14.00">Event</text>
</g>
<!-- Camp&#45;&gt;Event -->
<g id="edge2" class="edge"><title>Camp&#45;&gt;Event</title>
<path fill="none" stroke="#d3aca6" d="M217.589,-140.546C208.332,-131.789 197.513,-121.555 188.119,-112.669"/>
<ellipse fill="none" stroke="#d3aca6" cx="220.612" cy="-143.406" rx="4.00002" ry="4.00002"/>
<polygon fill="#d3aca6" stroke="#d3aca6" points="187.894,-112.456 183.721,-102.315 184.261,-109.02 180.629,-105.584 180.629,-105.584 180.629,-105.584 184.261,-109.02 177.536,-108.853 187.894,-112.456 187.894,-112.456"/>
</g>
<!-- CampApplication -->
<g id="node4" class="node"><title>CampApplication</title>
<ellipse fill="none" stroke="black" cx="361.212" cy="-162" rx="72.9653" ry="18"/>
<text text-anchor="middle" x="361.212" y="-157.8" font-family="Times,serif" font-size="14.00">CampApplication</text>
</g>
<!-- CheckOutPermission -->
<g id="node5" class="node"><title>CheckOutPermission</title>
<ellipse fill="none" stroke="black" cx="506.212" cy="-90" rx="85.0445" ry="18"/>
<text text-anchor="middle" x="506.212" y="-85.8" font-family="Times,serif" font-size="14.00">CheckOutPermission</text>
</g>
<!-- CampApplication&#45;&gt;CheckOutPermission -->
<g id="edge7" class="edge"><title>CampApplication&#45;&gt;CheckOutPermission</title>
<path fill="none" stroke="#53d3d3" d="M400.276,-142.141C420.115,-132.564 444.23,-120.922 464.438,-111.167"/>
<ellipse fill="none" stroke="#53d3d3" cx="396.635" cy="-143.899" rx="4.00002" ry="4.00002"/>
<polygon fill="#53d3d3" stroke="#53d3d3" points="464.707,-111.037 475.669,-110.742 469.21,-108.863 473.712,-106.689 473.712,-106.689 473.712,-106.689 469.21,-108.863 471.756,-102.637 464.707,-111.037 464.707,-111.037"/>
</g>
<!-- DebateRecord -->
<g id="node6" class="node"><title>DebateRecord</title>
<ellipse fill="none" stroke="black" cx="670.212" cy="-90" rx="60.87" ry="18"/>
<text text-anchor="middle" x="670.212" y="-85.8" font-family="Times,serif" font-size="14.00">DebateRecord</text>
</g>
<!-- CampApplication&#45;&gt;DebateRecord -->
<g id="edge6" class="edge"><title>CampApplication&#45;&gt;DebateRecord</title>
<path fill="none" stroke="#1f7f93" d="M422.312,-147.803C470.648,-137.279 539.819,-122.028 600.212,-108 605.111,-106.862 610.199,-105.662 615.295,-104.447"/>
<ellipse fill="none" stroke="#1f7f93" cx="418.347" cy="-148.666" rx="4.00001" ry="4.00001"/>
<polygon fill="#1f7f93" stroke="#1f7f93" points="615.333,-104.438 626.106,-106.483 620.195,-103.273 625.057,-102.107 625.057,-102.107 625.057,-102.107 620.195,-103.273 624.008,-97.7307 615.333,-104.438 615.333,-104.438"/>
</g>
<!-- CampApplication&#45;&gt;Event -->
<g id="edge5" class="edge"><title>CampApplication&#45;&gt;Event</title>
<path fill="none" stroke="#e184b2" d="M308.248,-144.369C277.62,-134.442 238.48,-121.225 204.212,-108 202.351,-107.282 200.449,-106.526 198.535,-105.749"/>
<polygon fill="#e184b2" stroke="#e184b2" points="308.358,-144.405 316.495,-151.756 313.117,-145.939 317.876,-147.473 317.876,-147.473 317.876,-147.473 313.117,-145.939 319.257,-143.19 308.358,-144.405 308.358,-144.405"/>
<polygon fill="#e184b2" stroke="#e184b2" points="198.226,-105.619 190.742,-97.6044 193.614,-103.687 189.003,-101.755 189.003,-101.755 189.003,-101.755 193.614,-103.687 187.264,-105.905 198.226,-105.619 198.226,-105.619"/>
</g>
<!-- CampapplicationsEvent -->
<g id="node10" class="node"><title>CampapplicationsEvent</title>
<ellipse fill="none" stroke="black" cx="308.212" cy="-90" rx="94.6809" ry="18"/>
<text text-anchor="middle" x="308.212" y="-85.8" font-family="Times,serif" font-size="14.00">CampapplicationsEvent</text>
</g>
<!-- CampApplication&#45;&gt;CampapplicationsEvent -->
<g id="edge4" class="edge"><title>CampApplication&#45;&gt;CampapplicationsEvent</title>
<path fill="none" stroke="#babb32" d="M343.541,-137.661C338.43,-130.91 332.824,-123.507 327.613,-116.625"/>
<ellipse fill="none" stroke="#babb32" cx="345.967" cy="-140.866" rx="4.00002" ry="4.00002"/>
<polygon fill="#babb32" stroke="#babb32" points="327.328,-116.248 324.879,-105.559 324.31,-112.262 321.292,-108.275 321.292,-108.275 321.292,-108.275 324.31,-112.262 317.704,-110.992 327.328,-116.248 327.328,-116.248"/>
</g>
<!-- EventsCampApplication -->
<g id="node11" class="node"><title>EventsCampApplication</title>
<ellipse fill="none" stroke="black" cx="165.212" cy="-18" rx="97.1035" ry="18"/>
<text text-anchor="middle" x="165.212" y="-13.8" font-family="Times,serif" font-size="14.00">EventsCampApplication</text>
</g>
<!-- Event&#45;&gt;EventsCampApplication -->
<g id="edge11" class="edge"><title>Event&#45;&gt;EventsCampApplication</title>
<path fill="none" stroke="#8237fc" d="M165.212,-63.6398C165.212,-58.0629 165.212,-52.1319 165.212,-46.4761"/>
<ellipse fill="none" stroke="#8237fc" cx="165.212" cy="-67.6966" rx="4" ry="4"/>
<polygon fill="#8237fc" stroke="#8237fc" points="165.212,-46.1043 169.712,-36.1043 165.212,-41.1043 165.212,-36.1043 165.212,-36.1043 165.212,-36.1043 165.212,-41.1043 160.712,-36.1044 165.212,-46.1043 165.212,-46.1043"/>
</g>
<!-- User -->
<g id="node8" class="node"><title>User</title>
<ellipse fill="none" stroke="black" cx="361.212" cy="-234" rx="27" ry="18"/>
<text text-anchor="middle" x="361.212" y="-229.8" font-family="Times,serif" font-size="14.00">User</text>
</g>
<!-- User&#45;&gt;CampApplication -->
<g id="edge13" class="edge"><title>User&#45;&gt;CampApplication</title>
<path fill="none" stroke="#83c553" d="M361.212,-207.64C361.212,-201.348 361.212,-194.605 361.212,-188.316"/>
<ellipse fill="none" stroke="#83c553" cx="361.212" cy="-211.697" rx="4" ry="4"/>
<ellipse fill="#83c553" stroke="#83c553" cx="361.212" cy="-184.104" rx="4" ry="4"/>
</g>
<!-- ActiveRecord::Base -->
<g id="node9" class="node"><title>ActiveRecord::Base</title>
<ellipse fill="none" stroke="black" cx="306.212" cy="-324.5" rx="81.1422" ry="18"/>
<text text-anchor="middle" x="306.212" y="-320.3" font-family="Times,serif" font-size="14.00">ActiveRecord::Base</text>
</g>
<!-- ActiveRecord::Base&#45;&gt;Admin -->
<g id="edge1" class="edge"><title>ActiveRecord::Base&#45;&gt;Admin</title>
<path fill="none" stroke="black" d="M272.857,-307.882C235.449,-290.365 175.638,-262.358 142.097,-246.653"/>
</g>
<!-- ActiveRecord::Base&#45;&gt;Camp -->
<g id="edge3" class="edge"><title>ActiveRecord::Base&#45;&gt;Camp</title>
<path fill="none" stroke="black" d="M299.041,-306.324C286.078,-275.27 258.906,-210.177 246.129,-179.572"/>
</g>
<!-- ActiveRecord::Base&#45;&gt;CampApplication -->
<g id="edge8" class="edge"><title>ActiveRecord::Base&#45;&gt;CampApplication</title>
<path fill="none" stroke="black" d="M307.044,-306.128C308.585,-284.347 312.945,-246.202 325.212,-216 330.486,-203.015 339.289,-189.973 346.87,-180.075"/>
</g>
<!-- ActiveRecord::Base&#45;&gt;CheckOutPermission -->
<g id="edge9" class="edge"><title>ActiveRecord::Base&#45;&gt;CheckOutPermission</title>
<path fill="none" stroke="black" d="M331.102,-307.13C350.43,-293.701 377.217,-273.464 397.212,-252 440.927,-205.073 479.794,-139.118 496.929,-108.229"/>
</g>
<!-- ActiveRecord::Base&#45;&gt;DebateRecord -->
<g id="edge10" class="edge"><title>ActiveRecord::Base&#45;&gt;DebateRecord</title>
<path fill="none" stroke="black" d="M333.817,-307.34C358.059,-293.048 394.196,-271.498 425.212,-252 507.513,-200.262 603.386,-136.105 646.766,-106.861"/>
</g>
<!-- ActiveRecord::Base&#45;&gt;Event -->
<g id="edge12" class="edge"><title>ActiveRecord::Base&#45;&gt;Event</title>
<path fill="none" stroke="black" d="M291.021,-306.458C268.582,-280.614 226.317,-229.287 199.212,-180 186.14,-156.231 175.863,-126.39 170.164,-108.012"/>
</g>
<!-- ActiveRecord::Base&#45;&gt;User -->
<g id="edge14" class="edge"><title>ActiveRecord::Base&#45;&gt;User</title>
<path fill="none" stroke="black" d="M316.816,-306.436C326.805,-290.363 341.65,-266.477 351.379,-250.822"/>
</g>
</g>
</svg>
