<?xml version="1.0" encoding="UTF-8" standalone="no"?>
<!DOCTYPE svg PUBLIC "-//W3C//DTD SVG 1.1//EN"
 "http://www.w3.org/Graphics/SVG/1.1/DTD/svg11.dtd">
<!-- Generated by graphviz version 2.38.0 (20140413.2041)
 -->
<!-- Title: models_diagram Pages: 1 -->
<svg width="713pt" height="369pt"
 viewBox="0.00 0.00 712.90 369.00" xmlns="http://www.w3.org/2000/svg" xmlns:xlink="http://www.w3.org/1999/xlink">
<g id="graph0" class="graph" transform="scale(1 1) rotate(0) translate(4 365)">
<title>models_diagram</title>
<polygon fill="white" stroke="none" points="-4,4 -4,-365 708.896,-365 708.896,4 -4,4"/>
<!-- _diagram_info -->
<g id="node1" class="node"><title>_diagram_info</title>
<text text-anchor="start" x="8" y="-346.6" font-family="Times,serif" font-size="13.00">Models diagram</text>
<text text-anchor="start" x="8" y="-333.6" font-family="Times,serif" font-size="13.00">Date: May 12 2014 &#45; 14:17</text>
<text text-anchor="start" x="8" y="-320.6" font-family="Times,serif" font-size="13.00">Migration version: 20140512211104</text>
<text text-anchor="start" x="8" y="-307.6" font-family="Times,serif" font-size="13.00">Generated by RailRoady 1.1.1</text>
<text text-anchor="start" x="8" y="-294.6" font-family="Times,serif" font-size="13.00">http://railroady.prestonlee.com</text>
</g>
<!-- Admin -->
<g id="node2" class="node"><title>Admin</title>
<ellipse fill="none" stroke="black" cx="97.2117" cy="-234" rx="34.8458" ry="18"/>
<text text-anchor="middle" x="97.2117" y="-229.8" font-family="Times,serif" font-size="14.00">Admin</text>
</g>
<!-- Camp -->
<g id="node3" class="node"><title>Camp</title>
<ellipse fill="none" stroke="black" cx="181.212" cy="-234" rx="31.4636" ry="18"/>
<text text-anchor="middle" x="181.212" y="-229.8" font-family="Times,serif" font-size="14.00">Camp</text>
</g>
<!-- CampSession -->
<g id="node5" class="node"><title>CampSession</title>
<ellipse fill="none" stroke="black" cx="192.212" cy="-162" rx="58.0169" ry="18"/>
<text text-anchor="middle" x="192.212" y="-157.8" font-family="Times,serif" font-size="14.00">CampSession</text>
</g>
<!-- Camp&#45;&gt;CampSession -->
<g id="edge3" class="edge"><title>Camp&#45;&gt;CampSession</title>
<path fill="none" stroke="#47dae6" d="M185.142,-207.987C186.044,-202.249 187.007,-196.121 187.923,-190.293"/>
<ellipse fill="none" stroke="#47dae6" cx="184.495" cy="-212.103" rx="4.00001" ry="4.00001"/>
<polygon fill="#47dae6" stroke="#47dae6" points="187.945,-190.154 193.942,-180.974 188.721,-185.215 189.497,-180.275 189.497,-180.275 189.497,-180.275 188.721,-185.215 185.052,-179.577 187.945,-190.154 187.945,-190.154"/>
</g>
<!-- Event -->
<g id="node8" class="node"><title>Event</title>
<ellipse fill="none" stroke="black" cx="139.212" cy="-90" rx="30.9706" ry="18"/>
<text text-anchor="middle" x="139.212" y="-85.8" font-family="Times,serif" font-size="14.00">Event</text>
</g>
<!-- Camp&#45;&gt;Event -->
<g id="edge2" class="edge"><title>Camp&#45;&gt;Event</title>
<path fill="none" stroke="#e7558d" d="M154.359,-215.232C143.118,-206.171 131.273,-194.081 125.212,-180 116.55,-159.877 121.557,-135.132 127.869,-116.847"/>
<ellipse fill="none" stroke="#e7558d" cx="157.684" cy="-217.778" rx="4.00002" ry="4.00002"/>
<polygon fill="#e7558d" stroke="#e7558d" points="127.895,-116.777 135.64,-109.014 129.663,-112.1 131.431,-107.423 131.431,-107.423 131.431,-107.423 129.663,-112.1 127.222,-105.832 127.895,-116.777 127.895,-116.777"/>
</g>
<!-- CampApplication -->
<g id="node4" class="node"><title>CampApplication</title>
<ellipse fill="none" stroke="black" cx="379.212" cy="-162" rx="72.9653" ry="18"/>
<text text-anchor="middle" x="379.212" y="-157.8" font-family="Times,serif" font-size="14.00">CampApplication</text>
</g>
<!-- CheckOutPermission -->
<g id="node6" class="node"><title>CheckOutPermission</title>
<ellipse fill="none" stroke="black" cx="480.212" cy="-90" rx="85.0445" ry="18"/>
<text text-anchor="middle" x="480.212" y="-85.8" font-family="Times,serif" font-size="14.00">CheckOutPermission</text>
</g>
<!-- CampApplication&#45;&gt;CheckOutPermission -->
<g id="edge8" class="edge"><title>CampApplication&#45;&gt;CheckOutPermission</title>
<path fill="none" stroke="#bb7248" d="M409.346,-140.115C421.618,-131.609 435.817,-121.768 448.268,-113.139"/>
<ellipse fill="none" stroke="#bb7248" cx="405.925" cy="-142.486" rx="4.00002" ry="4.00002"/>
<polygon fill="#bb7248" stroke="#bb7248" points="448.345,-113.086 459.127,-111.088 452.454,-110.238 456.564,-107.39 456.564,-107.39 456.564,-107.39 452.454,-110.238 454,-103.691 448.345,-113.086 448.345,-113.086"/>
</g>
<!-- DebateRecord -->
<g id="node7" class="node"><title>DebateRecord</title>
<ellipse fill="none" stroke="black" cx="644.212" cy="-90" rx="60.87" ry="18"/>
<text text-anchor="middle" x="644.212" y="-85.8" font-family="Times,serif" font-size="14.00">DebateRecord</text>
</g>
<!-- CampApplication&#45;&gt;DebateRecord -->
<g id="edge7" class="edge"><title>CampApplication&#45;&gt;DebateRecord</title>
<path fill="none" stroke="#1d4ecc" d="M435.228,-146.203C481.065,-134.095 545.473,-117.082 590.635,-105.152"/>
<ellipse fill="none" stroke="#1d4ecc" cx="431.069" cy="-147.302" rx="4.00001" ry="4.00001"/>
<polygon fill="#1d4ecc" stroke="#1d4ecc" points="590.866,-105.091 601.684,-106.888 595.7,-103.814 600.535,-102.537 600.535,-102.537 600.535,-102.537 595.7,-103.814 599.385,-98.1865 590.866,-105.091 590.866,-105.091"/>
</g>
<!-- CampApplication&#45;&gt;Event -->
<g id="edge6" class="edge"><title>CampApplication&#45;&gt;Event</title>
<path fill="none" stroke="#0f6c4e" d="M316.601,-147.107C276.562,-137.583 223.779,-123.834 178.212,-108 176.114,-107.271 173.972,-106.479 171.823,-105.649"/>
<polygon fill="#0f6c4e" stroke="#0f6c4e" points="316.76,-147.144 325.463,-153.816 321.627,-148.29 326.494,-149.436 326.494,-149.436 326.494,-149.436 321.627,-148.29 327.525,-145.056 316.76,-147.144 316.76,-147.144"/>
<polygon fill="#0f6c4e" stroke="#0f6c4e" points="171.749,-105.619 164.192,-97.6731 167.12,-103.729 162.491,-101.839 162.491,-101.839 162.491,-101.839 167.12,-103.729 160.79,-106.006 171.749,-105.619 171.749,-105.619"/>
</g>
<!-- CampapplicationsEvent -->
<g id="node11" class="node"><title>CampapplicationsEvent</title>
<ellipse fill="none" stroke="black" cx="282.212" cy="-90" rx="94.6809" ry="18"/>
<text text-anchor="middle" x="282.212" y="-85.8" font-family="Times,serif" font-size="14.00">CampapplicationsEvent</text>
</g>
<!-- CampApplication&#45;&gt;CampapplicationsEvent -->
<g id="edge5" class="edge"><title>CampApplication&#45;&gt;CampapplicationsEvent</title>
<path fill="none" stroke="#fe170f" d="M349.929,-139.868C338.41,-131.556 325.167,-121.998 313.463,-113.553"/>
<ellipse fill="none" stroke="#fe170f" cx="353.471" cy="-142.424" rx="4.00002" ry="4.00002"/>
<polygon fill="#fe170f" stroke="#fe170f" points="313.37,-113.485 307.894,-103.984 309.315,-110.559 305.261,-107.633 305.261,-107.633 305.261,-107.633 309.315,-110.559 302.627,-111.282 313.37,-113.485 313.37,-113.485"/>
</g>
<!-- CampSession&#45;&gt;Event -->
<g id="edge10" class="edge"><title>CampSession&#45;&gt;Event</title>
<path fill="none" stroke="#d9f76f" d="M174.8,-138.003C169.275,-130.707 163.151,-122.619 157.563,-115.238"/>
<ellipse fill="none" stroke="#d9f76f" cx="177.237" cy="-141.222" rx="4.00002" ry="4.00002"/>
<polygon fill="#d9f76f" stroke="#d9f76f" points="157.353,-114.961 154.905,-104.272 154.335,-110.974 151.317,-106.988 151.317,-106.988 151.317,-106.988 154.335,-110.974 147.729,-109.705 157.353,-114.961 157.353,-114.961"/>
</g>
<!-- EventsCampApplication -->
<g id="node12" class="node"><title>EventsCampApplication</title>
<ellipse fill="none" stroke="black" cx="139.212" cy="-18" rx="97.1035" ry="18"/>
<text text-anchor="middle" x="139.212" y="-13.8" font-family="Times,serif" font-size="14.00">EventsCampApplication</text>
</g>
<!-- Event&#45;&gt;EventsCampApplication -->
<g id="edge14" class="edge"><title>Event&#45;&gt;EventsCampApplication</title>
<path fill="none" stroke="#050d54" d="M139.212,-63.6398C139.212,-58.0629 139.212,-52.1319 139.212,-46.4761"/>
<ellipse fill="none" stroke="#050d54" cx="139.212" cy="-67.6966" rx="4" ry="4"/>
<polygon fill="#050d54" stroke="#050d54" points="139.212,-46.1043 143.712,-36.1043 139.212,-41.1043 139.212,-36.1043 139.212,-36.1043 139.212,-36.1043 139.212,-41.1043 134.712,-36.1044 139.212,-46.1043 139.212,-46.1043"/>
</g>
<!-- User -->
<g id="node9" class="node"><title>User</title>
<ellipse fill="none" stroke="black" cx="333.212" cy="-234" rx="27" ry="18"/>
<text text-anchor="middle" x="333.212" y="-229.8" font-family="Times,serif" font-size="14.00">User</text>
</g>
<!-- User&#45;&gt;CampApplication -->
<g id="edge16" class="edge"><title>User&#45;&gt;CampApplication</title>
<path fill="none" stroke="#7a5a2d" d="M348.181,-210.221C353.165,-202.636 358.725,-194.176 363.746,-186.535"/>
<ellipse fill="none" stroke="#7a5a2d" cx="345.847" cy="-213.773" rx="4.00002" ry="4.00002"/>
<ellipse fill="#7a5a2d" stroke="#7a5a2d" cx="365.977" cy="-183.14" rx="4.00002" ry="4.00002"/>
</g>
<!-- ActiveRecord::Base -->
<g id="node10" class="node"><title>ActiveRecord::Base</title>
<ellipse fill="none" stroke="black" cx="306.212" cy="-324.5" rx="81.1422" ry="18"/>
<text text-anchor="middle" x="306.212" y="-320.3" font-family="Times,serif" font-size="14.00">ActiveRecord::Base</text>
</g>
<!-- ActiveRecord::Base&#45;&gt;Admin -->
<g id="edge1" class="edge"><title>ActiveRecord::Base&#45;&gt;Admin</title>
<path fill="none" stroke="black" d="M270.283,-308.286C228.384,-290.544 160.153,-261.652 123.115,-245.969"/>
</g>
<!-- ActiveRecord::Base&#45;&gt;Camp -->
<g id="edge4" class="edge"><title>ActiveRecord::Base&#45;&gt;Camp</title>
<path fill="none" stroke="black" d="M282.993,-307.061C259.129,-290.166 222.416,-264.173 200.219,-248.457"/>
</g>
<!-- ActiveRecord::Base&#45;&gt;CampApplication -->
<g id="edge9" class="edge"><title>ActiveRecord::Base&#45;&gt;CampApplication</title>
<path fill="none" stroke="black" d="M326.294,-306.926C340.833,-293.682 359.561,-273.782 369.212,-252 379.542,-228.686 380.74,-198.718 380.268,-180.189"/>
</g>
<!-- ActiveRecord::Base&#45;&gt;CampSession -->
<g id="edge11" class="edge"><title>ActiveRecord::Base&#45;&gt;CampSession</title>
<path fill="none" stroke="black" d="M294.227,-306.627C272.275,-275.721 225.868,-210.384 204.036,-179.647"/>
</g>
<!-- ActiveRecord::Base&#45;&gt;CheckOutPermission -->
<g id="edge12" class="edge"><title>ActiveRecord::Base&#45;&gt;CheckOutPermission</title>
<path fill="none" stroke="black" d="M332.118,-307.368C367.393,-283.929 429.736,-236.976 461.212,-180 473.818,-157.181 478.067,-126.805 479.495,-108.092"/>
</g>
<!-- ActiveRecord::Base&#45;&gt;DebateRecord -->
<g id="edge13" class="edge"><title>ActiveRecord::Base&#45;&gt;DebateRecord</title>
<path fill="none" stroke="black" d="M337.203,-307.804C363.592,-294.061 402.205,-273.05 434.212,-252 507.715,-203.659 588.761,-137.549 624.935,-107.305"/>
</g>
<!-- ActiveRecord::Base&#45;&gt;Event -->
<g id="edge15" class="edge"><title>ActiveRecord::Base&#45;&gt;Event</title>
<path fill="none" stroke="black" d="M303.636,-306.215C297.375,-266.21 280.308,-168.769 259.212,-144 258.372,-143.014 198.074,-116.642 163.285,-101.478"/>
</g>
<!-- ActiveRecord::Base&#45;&gt;User -->
<g id="edge17" class="edge"><title>ActiveRecord::Base&#45;&gt;User</title>
<path fill="none" stroke="black" d="M311.418,-306.436C316.229,-290.665 323.336,-267.37 328.113,-251.711"/>
</g>
</g>
</svg>
